<svg xmlns="http://www.w3.org/2000/svg" width="516" height="477" fill="none"><rect width="516" height="477" fill="#fff" rx="30"/><path fill="#111827" d="M89.09 66.521h-1.808v-11.8h1.808v11.8zm6.288 0h-3.73v-11.8h3.73c1.26 0 2.333.253 3.22.757a4.933 4.933 0 0 1 2.022 2.054c.46.876.691 1.89.691 3.04 0 1.14-.236 2.158-.707 3.057a5.305 5.305 0 0 1-2.054 2.12c-.888.515-1.945.772-3.172.772zm-1.923-10.238v8.677h1.84c.91 0 1.671-.175 2.285-.526a3.47 3.47 0 0 0 1.413-1.528c.318-.658.477-1.435.477-2.334 0-.887-.159-1.649-.477-2.284a3.298 3.298 0 0 0-1.413-1.48c-.614-.35-1.375-.525-2.284-.525h-1.841zm19.723 4.831h1.528c-.011.45-.071.899-.181 1.348-.109.45-.257.871-.443 1.265a5.4 5.4 0 0 1-.625 1.069c-.493.624-1.052 1.095-1.676 1.413a4.263 4.263 0 0 1-1.956.477c-.789 0-1.473-.143-2.054-.428a3.267 3.267 0 0 1-1.348-1.232c-.317-.537-.476-1.162-.476-1.874 0-.504.109-.964.328-1.38.231-.417.543-.784.937-1.101.406-.318.866-.57 1.381-.756l.887 1.035a2.804 2.804 0 0 0-1.002.41 1.99 1.99 0 0 0-.691.724 1.908 1.908 0 0 0-.246.97c0 .383.082.75.246 1.1.176.34.444.62.806.839.361.219.816.329 1.364.329.526 0 1.019-.132 1.479-.395.46-.263.827-.624 1.101-1.085.186-.306.334-.7.444-1.183.109-.482.175-.997.197-1.545zm-2.975-.92 5.637 6.327h-2.071l-5.259-5.9a9.148 9.148 0 0 1-.657-.854 3.96 3.96 0 0 1-.378-.822 3.046 3.046 0 0 1-.131-.904c0-.537.137-1.013.411-1.43a2.796 2.796 0 0 1 1.133-1.002 3.693 3.693 0 0 1 1.644-.362c.613 0 1.156.12 1.627.362.471.23.838.559 1.101.986.274.427.416.926.427 1.495h-1.561c-.022-.328-.11-.602-.263-.821a1.599 1.599 0 0 0-2.087-.493c-.23.12-.411.29-.542.51a1.463 1.463 0 0 0-.198.772c0 .24.044.47.132.69.087.208.219.427.394.657.176.23.389.493.641.79zm20.155-5.473-4.338 11.8h-1.989l-4.338-11.8h1.939l3.435 9.697 3.484-9.697h1.807zm10.119 12.047a5.752 5.752 0 0 1-2.301-.46 5.975 5.975 0 0 1-1.857-1.315 6.117 6.117 0 0 1-1.233-1.956 6.611 6.611 0 0 1-.444-2.432c0-.866.148-1.67.444-2.416a5.925 5.925 0 0 1 1.233-1.94 5.75 5.75 0 0 1 1.857-1.297 5.58 5.58 0 0 1 2.301-.477c.986 0 1.884.203 2.695.608a5.51 5.51 0 0 1 2.038 1.71c.547.733.892 1.588 1.035 2.563h-1.923a3.944 3.944 0 0 0-.707-1.693 3.776 3.776 0 0 0-3.122-1.561c-.581 0-1.118.11-1.611.329a3.778 3.778 0 0 0-1.265.936 4.47 4.47 0 0 0-.822 1.43 5.593 5.593 0 0 0-.279 1.808c0 .657.093 1.265.279 1.824a4.47 4.47 0 0 0 .822 1.43 3.98 3.98 0 0 0 1.265.953c.493.22 1.03.329 1.611.329.657 0 1.254-.137 1.791-.411a3.784 3.784 0 0 0 1.331-1.167 3.944 3.944 0 0 0 .707-1.693h1.923c-.143.976-.488 1.83-1.035 2.564a5.659 5.659 0 0 1-2.038 1.726c-.811.405-1.709.608-2.695.608zm9.175-5.16v4.913h-1.66v-11.8h1.66v4.487c.285-.471.646-.85 1.085-1.134.449-.285.975-.427 1.577-.427.899 0 1.616.28 2.153.838.548.559.822 1.358.822 2.4v5.636h-1.66v-5.078c0-.745-.159-1.32-.476-1.725-.318-.406-.789-.609-1.414-.609-.383 0-.734.105-1.052.313a2.07 2.07 0 0 0-.756.854c-.186.373-.279.816-.279 1.331zm11.424 5.078c-.844 0-1.583-.187-2.219-.56a3.93 3.93 0 0 1-1.462-1.61c-.351-.69-.526-1.49-.526-2.4 0-.865.181-1.632.542-2.3a4.111 4.111 0 0 1 1.479-1.578c.625-.394 1.337-.591 2.137-.591.657 0 1.243.126 1.758.378.526.24.97.586 1.331 1.035.373.438.641.959.805 1.561.165.592.209 1.244.132 1.956h-7.215v-1.101h5.457c-.033-.81-.258-1.44-.674-1.89-.406-.46-.948-.69-1.627-.69-.493 0-.926.131-1.299.394-.361.252-.646.62-.854 1.101-.197.471-.296 1.047-.296 1.726 0 .68.099 1.265.296 1.758.197.482.482.855.854 1.118.373.263.822.394 1.348.394.625 0 1.139-.159 1.545-.476.416-.318.69-.762.822-1.331h1.643c-.208.964-.668 1.725-1.381 2.284-.701.548-1.566.822-2.596.822zm9.016.016c-.8 0-1.506-.192-2.12-.575a4.046 4.046 0 0 1-1.43-1.594c-.339-.69-.509-1.48-.509-2.367 0-.876.175-1.654.526-2.333a3.99 3.99 0 0 1 1.446-1.595c.613-.394 1.309-.591 2.087-.591.723 0 1.364.153 1.923.46a3.653 3.653 0 0 1 1.397 1.282c.372.548.608 1.2.706 1.955h-1.742c-.087-.7-.334-1.248-.739-1.643-.406-.394-.915-.592-1.529-.592-.482 0-.898.132-1.249.395-.35.252-.624.602-.821 1.052-.198.449-.296.986-.296 1.61 0 .614.098 1.15.296 1.61.197.46.471.817.821 1.069.351.252.767.378 1.249.378.625 0 1.134-.197 1.529-.592.405-.394.657-.942.756-1.643h1.725c-.087.767-.312 1.43-.673 1.988a3.833 3.833 0 0 1-1.397 1.282c-.57.296-1.222.444-1.956.444zm7.357-.18h-1.66v-11.8h1.66v6.984l3.731-3.895h1.955l-4.026 4.224 4.404 4.486h-2.136l-3.928-4.125v4.125z"/><path fill="#20BF6B" fill-rule="evenodd" d="M208.173 72.39c6.555 0 11.869-5.314 11.869-11.87 0-6.554-5.314-11.868-11.869-11.868s-11.869 5.314-11.869 11.869 5.314 11.869 11.869 11.869zm5.5-13.787a1.483 1.483 0 1 0-2.098-2.099l-4.885 4.886-1.919-1.918a1.483 1.483 0 1 0-2.098 2.098l2.968 2.967c.579.58 1.518.58 2.098 0l5.934-5.934z" clip-rule="evenodd"/><circle cx="208.173" cy="60.521" r="14.608" stroke="#20BF6B" stroke-width="1.826"/><rect width="156.694" height="50.042" x="76.5" y="35.5" stroke="#D1D5DB" rx="9.5"/><path fill="#111827" d="M261.068 62.413h-2.284v4.108h-1.808v-11.8h4.092c.877 0 1.638.148 2.285.444.657.285 1.167.712 1.528 1.282.362.559.542 1.255.542 2.087 0 .822-.18 1.523-.542 2.104-.361.57-.871 1.008-1.528 1.315-.647.306-1.408.46-2.285.46zm-.016-6.163h-2.268v4.634h2.268c.8 0 1.424-.208 1.873-.624.461-.416.691-.986.691-1.71 0-.733-.23-1.298-.691-1.692-.449-.405-1.073-.608-1.873-.608zm7.708 5.357v4.914h-1.66v-11.8h1.66v4.487c.285-.471.646-.85 1.085-1.134.449-.285.975-.427 1.577-.427.899 0 1.616.28 2.153.838.548.559.822 1.358.822 2.4v5.636h-1.66v-5.078c0-.745-.159-1.32-.477-1.725-.317-.406-.788-.609-1.413-.609-.383 0-.734.105-1.052.313a2.07 2.07 0 0 0-.756.854c-.186.373-.279.816-.279 1.331zm11.49 5.079c-.614 0-1.184-.11-1.71-.33a4.18 4.18 0 0 1-1.347-.952 4.664 4.664 0 0 1-.904-1.446 5.006 5.006 0 0 1-.312-1.792c0-.646.104-1.243.312-1.791.219-.548.52-1.025.904-1.43a3.87 3.87 0 0 1 1.347-.953 4.22 4.22 0 0 1 1.71-.345c.624 0 1.194.115 1.709.345a3.68 3.68 0 0 1 1.347.953c.384.405.68.882.888 1.43.219.548.328 1.145.328 1.791 0 .647-.109 1.244-.328 1.792a4.428 4.428 0 0 1-.888 1.446 3.955 3.955 0 0 1-1.347.953 4.323 4.323 0 0 1-1.709.329zm0-1.463c.482 0 .914-.12 1.298-.362.394-.252.701-.608.92-1.068.23-.46.345-1.002.345-1.627 0-.635-.115-1.178-.345-1.627a2.408 2.408 0 0 0-.92-1.052 2.39 2.39 0 0 0-1.298-.361c-.472 0-.904.12-1.299.361-.383.241-.69.592-.92 1.052-.219.45-.329.992-.329 1.627 0 .625.11 1.167.329 1.627.23.46.537.816.92 1.068.395.241.827.362 1.299.362zm10.718-.312v1.462c-.252.12-.499.203-.74.247a3.93 3.93 0 0 1-.739.066c-.537 0-1.014-.099-1.43-.296a2.148 2.148 0 0 1-.953-.92c-.23-.417-.345-.943-.345-1.578v-4.668h-1.923v-1.413h1.923v-2.58h1.66v2.58h2.629v1.413h-2.629v4.29c0 .602.131 1.024.394 1.265.274.241.63.362 1.068.362.197 0 .384-.017.559-.05.186-.043.361-.104.526-.18zm5.074 1.775c-.614 0-1.184-.11-1.709-.33a4.183 4.183 0 0 1-1.348-.952 4.683 4.683 0 0 1-.904-1.446 5.006 5.006 0 0 1-.312-1.792c0-.646.104-1.243.312-1.791a4.48 4.48 0 0 1 .904-1.43 3.873 3.873 0 0 1 1.348-.953 4.211 4.211 0 0 1 1.709-.345c.624 0 1.194.115 1.709.345.526.219.975.537 1.348.953.383.405.679.882.887 1.43.219.548.329 1.145.329 1.791 0 .647-.11 1.244-.329 1.792a4.443 4.443 0 0 1-.887 1.446 3.968 3.968 0 0 1-1.348.953 4.323 4.323 0 0 1-1.709.329zm0-1.463c.482 0 .915-.12 1.298-.362.394-.252.701-.608.92-1.068.23-.46.345-1.002.345-1.627 0-.635-.115-1.178-.345-1.627a2.408 2.408 0 0 0-.92-1.052 2.387 2.387 0 0 0-1.298-.361c-.471 0-.904.12-1.299.361-.383.241-.69.592-.92 1.052-.219.45-.329.992-.329 1.627 0 .625.11 1.167.329 1.627.23.46.537.816.92 1.068.395.241.828.362 1.299.362zm16.63-7.412-3.27 8.71h-1.808l-3.27-8.71h1.791l2.416 6.804 2.449-6.804h1.692zm4.489 8.875c-.844 0-1.583-.187-2.219-.56a3.94 3.94 0 0 1-1.463-1.61c-.35-.69-.525-1.49-.525-2.4 0-.865.18-1.632.542-2.3a4.096 4.096 0 0 1 1.479-1.578c.624-.394 1.337-.591 2.136-.591.658 0 1.244.126 1.759.378.526.24.969.586 1.331 1.035.373.438.641.959.805 1.561.165.592.208 1.244.132 1.956h-7.215v-1.101h5.456c-.033-.81-.257-1.44-.673-1.89-.406-.46-.948-.69-1.627-.69-.493 0-.926.131-1.299.394-.361.252-.646.62-.854 1.101-.198.471-.296 1.047-.296 1.726 0 .68.098 1.265.296 1.758.197.482.482.855.854 1.118.373.263.822.394 1.348.394.624 0 1.139-.159 1.545-.476.416-.318.69-.762.821-1.331h1.644c-.208.964-.669 1.725-1.381 2.284-.701.548-1.566.822-2.596.822zm7.401-4.618v4.453h-1.659v-8.71h1.544v1.84a3.433 3.433 0 0 1 1.364-1.429 3.944 3.944 0 0 1 1.989-.526v1.726c-.625-.033-1.183.038-1.676.213a2.353 2.353 0 0 0-1.151.871c-.274.395-.411.915-.411 1.562zm6.211 4.453h-1.659v-8.71h1.659v8.71zm.362-10.731c0 .306-.115.57-.345.789-.219.208-.504.312-.855.312-.361 0-.657-.104-.887-.312a1.077 1.077 0 0 1-.329-.79c0-.328.11-.59.329-.788.23-.208.526-.312.887-.312.351 0 .636.104.855.312.23.197.345.46.345.789zm4.391 10.731h-1.66v-7.297h-1.922v-1.413h1.922v-.64c0-.844.22-1.485.658-1.924.438-.449 1.068-.673 1.89-.673.241 0 .46.022.657.065.208.033.395.082.559.148v1.348a1.773 1.773 0 0 0-.411-.115 2.91 2.91 0 0 0-.444-.033c-.383 0-.69.099-.92.296-.219.186-.329.487-.329.904v.624h2.433v1.413h-2.433v7.297zm5.341 0h-1.659v-8.71h1.659v8.71zm.362-10.731c0 .306-.11.57-.329.789-.219.208-.509.312-.871.312-.35 0-.641-.104-.871-.312a1.076 1.076 0 0 1-.328-.79c0-.328.109-.59.328-.788.23-.208.521-.312.871-.312.362 0 .652.104.871.312.219.197.329.46.329.789zm5.378 10.912c-.8 0-1.506-.192-2.12-.575a4.047 4.047 0 0 1-1.43-1.594c-.339-.69-.509-1.48-.509-2.367 0-.876.175-1.654.526-2.333.35-.68.833-1.211 1.446-1.595.614-.394 1.309-.591 2.087-.591.723 0 1.364.153 1.923.46.57.296 1.035.723 1.397 1.282.372.548.608 1.2.707 1.955h-1.742c-.088-.7-.335-1.248-.74-1.643-.405-.394-.915-.592-1.528-.592-.482 0-.899.132-1.249.395-.351.252-.625.602-.822 1.052-.197.449-.296.986-.296 1.61 0 .614.099 1.15.296 1.61.197.46.471.817.822 1.069.35.252.767.378 1.249.378.624 0 1.134-.197 1.528-.592.405-.394.657-.942.756-1.643h1.726c-.088.767-.313 1.43-.674 1.988a3.825 3.825 0 0 1-1.397 1.282c-.57.296-1.222.444-1.956.444zm4.993-4.536c0-.876.158-1.654.476-2.333.329-.69.784-1.228 1.364-1.611.592-.383 1.288-.575 2.087-.575.636 0 1.189.148 1.66.444.482.284.877.7 1.183 1.248v-1.528h1.545v8.71h-1.545V64.96a3.376 3.376 0 0 1-1.232 1.282 3.25 3.25 0 0 1-1.676.444c-.778 0-1.458-.192-2.038-.576a3.895 3.895 0 0 1-1.348-1.61c-.318-.69-.476-1.468-.476-2.334zm1.725 0c0 .975.23 1.726.69 2.252.461.526 1.052.788 1.775.788.482 0 .904-.12 1.266-.361.372-.252.663-.608.871-1.068.219-.46.328-1.008.328-1.644 0-.646-.109-1.194-.328-1.643-.219-.45-.515-.789-.888-1.019a2.249 2.249 0 0 0-1.249-.362c-.723 0-1.314.263-1.775.79-.46.525-.69 1.281-.69 2.267zm13.715 2.745v1.462a2.93 2.93 0 0 1-.739.247 3.95 3.95 0 0 1-.74.066c-.537 0-1.013-.099-1.43-.296a2.148 2.148 0 0 1-.953-.92c-.23-.417-.345-.943-.345-1.578v-4.668h-1.923v-1.413h1.923v-2.58h1.66v2.58h2.629v1.413h-2.629v4.29c0 .602.131 1.024.394 1.265.274.241.63.362 1.069.362.197 0 .383-.017.558-.05a2.67 2.67 0 0 0 .526-.18zm3.326 1.61h-1.66v-8.71h1.66v8.71zm.362-10.731c0 .306-.115.57-.345.789-.219.208-.504.312-.855.312-.361 0-.657-.104-.887-.312a1.077 1.077 0 0 1-.329-.79c0-.328.11-.59.329-.788.23-.208.526-.312.887-.312.351 0 .636.104.855.312.23.197.345.46.345.789zm5.591 10.896c-.614 0-1.183-.11-1.709-.33a4.194 4.194 0 0 1-1.348-.952 4.683 4.683 0 0 1-.904-1.446 5.006 5.006 0 0 1-.312-1.792c0-.646.104-1.243.312-1.791a4.48 4.48 0 0 1 .904-1.43 3.882 3.882 0 0 1 1.348-.953 4.215 4.215 0 0 1 1.709-.345c.624 0 1.194.115 1.709.345.526.219.975.537 1.348.953.383.405.679.882.887 1.43.219.548.329 1.145.329 1.791 0 .647-.11 1.244-.329 1.792a4.443 4.443 0 0 1-.887 1.446 3.968 3.968 0 0 1-1.348.953 4.323 4.323 0 0 1-1.709.329zm0-1.463c.482 0 .915-.12 1.298-.362a2.52 2.52 0 0 0 .921-1.068c.23-.46.345-1.002.345-1.627 0-.635-.115-1.178-.345-1.627-.22-.46-.526-.81-.921-1.052a2.387 2.387 0 0 0-1.298-.361c-.471 0-.904.12-1.298.361-.384.241-.691.592-.921 1.052-.219.45-.328.992-.328 1.627 0 .625.109 1.167.328 1.627.23.46.537.816.921 1.068.394.241.827.362 1.298.362zm7.625-3.616v4.914h-1.66v-8.71h1.545v1.446a3.551 3.551 0 0 1 1.15-1.166 3.05 3.05 0 0 1 1.627-.444c.898 0 1.616.28 2.153.838.548.559.822 1.358.822 2.4v5.636h-1.66v-5.078c0-.745-.159-1.32-.477-1.725-.317-.406-.789-.609-1.413-.609a1.88 1.88 0 0 0-1.052.313c-.318.197-.57.482-.756.854-.186.373-.279.816-.279 1.331z"/><path fill="#20BF6B" fill-rule="evenodd" d="M414.868 72.39c6.555 0 11.869-5.314 11.869-11.87 0-6.554-5.314-11.868-11.869-11.868s-11.869 5.314-11.869 11.869 5.314 11.869 11.869 11.869zm5.5-13.787a1.484 1.484 0 0 0-2.098-2.099l-4.886 4.886-1.918-1.918a1.483 1.483 0 1 0-2.098 2.098l2.967 2.967c.579.58 1.519.58 2.098 0l5.935-5.934z" clip-rule="evenodd"/><circle cx="414.868" cy="60.521" r="14.608" stroke="#20BF6B" stroke-width="1.826"/><rect width="193.694" height="50.042" x="246.194" y="35.5" stroke="#D1D5DB" rx="9.5"/><path fill="#111827" d="M41.09 125.176h5.489l.493 1.462h-6.59l.608-1.462zm6.31 4.388-3.599-9.828-3.648 9.828h-1.824l4.52-11.8h1.988l4.486 11.8H47.4zm2.296-4.355c0-.877.159-1.655.477-2.334.317-.69.767-1.227 1.347-1.611.58-.383 1.26-.575 2.038-.575.58 0 1.112.148 1.594.444.493.285.893.69 1.2 1.216v-4.585h1.66v11.8h-1.545v-1.562a3.376 3.376 0 0 1-1.233 1.282 3.248 3.248 0 0 1-1.676.444c-.778 0-1.457-.192-2.038-.575a3.894 3.894 0 0 1-1.347-1.611c-.318-.69-.477-1.468-.477-2.333zm1.726 0c0 .975.23 1.725.69 2.251.46.526 1.052.789 1.775.789.482 0 .904-.121 1.265-.362.373-.252.663-.608.871-1.068.22-.46.329-1.008.329-1.643 0-.647-.11-1.194-.329-1.644-.219-.449-.515-.788-.887-1.019a2.25 2.25 0 0 0-1.25-.361c-.722 0-1.314.263-1.774.789-.46.526-.69 1.282-.69 2.268zm8.273 0c0-.877.158-1.655.476-2.334.318-.69.767-1.227 1.348-1.611.58-.383 1.26-.575 2.038-.575.58 0 1.112.148 1.594.444.493.285.893.69 1.2 1.216v-4.585h1.66v11.8h-1.546v-1.562a3.376 3.376 0 0 1-1.232 1.282 3.249 3.249 0 0 1-1.676.444c-.778 0-1.458-.192-2.038-.575a3.896 3.896 0 0 1-1.348-1.611c-.318-.69-.477-1.468-.477-2.333zm1.725 0c0 .975.23 1.725.69 2.251.46.526 1.052.789 1.775.789.482 0 .904-.121 1.266-.362.372-.252.663-.608.87-1.068.22-.46.33-1.008.33-1.643 0-.647-.11-1.194-.33-1.644-.218-.449-.514-.788-.887-1.019a2.25 2.25 0 0 0-1.249-.361c-.723 0-1.314.263-1.775.789-.46.526-.69 1.282-.69 2.268zm10.557-.099v4.454h-1.66v-8.71h1.545v1.84a3.434 3.434 0 0 1 1.364-1.43 3.946 3.946 0 0 1 1.989-.525v1.725c-.624-.033-1.183.038-1.676.214a2.346 2.346 0 0 0-1.15.871c-.275.394-.412.915-.412 1.561zm8.102 4.618c-.843 0-1.583-.186-2.218-.559a3.93 3.93 0 0 1-1.463-1.61c-.35-.69-.526-1.49-.526-2.4 0-.865.18-1.632.542-2.3a4.096 4.096 0 0 1 1.48-1.578c.624-.395 1.336-.592 2.136-.592.657 0 1.243.126 1.758.378.526.241.97.586 1.331 1.036.373.438.641.958.806 1.561.164.591.208 1.243.131 1.956h-7.214v-1.102h5.456c-.033-.81-.258-1.44-.674-1.89-.405-.46-.948-.69-1.627-.69-.493 0-.926.132-1.298.395-.362.252-.647.619-.855 1.101-.197.471-.296 1.046-.296 1.725 0 .68.099 1.266.296 1.759.197.482.482.854.855 1.117.372.263.821.395 1.347.395.625 0 1.14-.159 1.545-.477.416-.318.69-.761.822-1.331h1.643c-.208.964-.668 1.726-1.38 2.284-.701.548-1.567.822-2.597.822zm12.644-2.761c0 .855-.317 1.528-.953 2.022-.635.493-1.534.739-2.695.739-1.14 0-2.043-.268-2.712-.805-.657-.537-1.03-1.271-1.117-2.202h1.594c.022.547.235.98.64 1.298.417.307.96.46 1.628.46.58 0 1.046-.104 1.397-.312.361-.208.542-.515.542-.921 0-.361-.12-.635-.361-.821-.23-.186-.62-.329-1.167-.427l-1.414-.263c-.8-.154-1.419-.433-1.857-.839-.438-.416-.657-.953-.657-1.61 0-.515.137-.964.41-1.348.286-.394.68-.701 1.184-.92.504-.219 1.09-.329 1.758-.329.702 0 1.315.121 1.841.362.526.23.948.564 1.265 1.002.318.428.499.943.543 1.545h-1.594c-.055-.515-.263-.92-.625-1.216-.361-.296-.833-.444-1.413-.444-.526 0-.953.11-1.282.329a.985.985 0 0 0-.477.871c0 .351.115.619.346.805.24.176.624.318 1.15.428l1.479.279c.865.153 1.507.422 1.923.805.416.384.624.888.624 1.512zm8.715 0c0 .855-.318 1.528-.953 2.022-.636.493-1.534.739-2.695.739-1.14 0-2.044-.268-2.712-.805-.657-.537-1.03-1.271-1.118-2.202h1.595c.021.547.235.98.64 1.298.417.307.96.46 1.627.46.581 0 1.047-.104 1.397-.312.362-.208.543-.515.543-.921 0-.361-.12-.635-.362-.821-.23-.186-.619-.329-1.167-.427l-1.413-.263c-.8-.154-1.419-.433-1.857-.839-.438-.416-.657-.953-.657-1.61 0-.515.136-.964.41-1.348.285-.394.68-.701 1.184-.92.504-.219 1.09-.329 1.758-.329.701 0 1.315.121 1.84.362.527.23.948.564 1.266 1.002.318.428.499.943.542 1.545h-1.594c-.055-.515-.263-.92-.624-1.216-.362-.296-.833-.444-1.413-.444-.526 0-.954.11-1.282.329a.985.985 0 0 0-.477.871c0 .351.115.619.345.805.241.176.625.318 1.15.428l1.48.279c.865.153 1.506.422 1.922.805.417.384.625.888.625 1.512zm12.478-6.113-3.271 8.71h-1.807l-3.271-8.71h1.791l2.416 6.803 2.449-6.803h1.693zm.313 4.355c0-.877.159-1.655.477-2.334.328-.69.783-1.227 1.364-1.611.591-.383 1.287-.575 2.087-.575.635 0 1.189.148 1.66.444.482.285.876.701 1.183 1.249v-1.528h1.545v8.71H121v-1.562a3.379 3.379 0 0 1-1.233 1.282 3.247 3.247 0 0 1-1.676.444c-.778 0-1.457-.192-2.038-.575a3.893 3.893 0 0 1-1.347-1.611c-.318-.69-.477-1.468-.477-2.333zm1.726 0c0 .975.23 1.725.69 2.251.46.526 1.052.789 1.775.789.482 0 .904-.121 1.265-.362.373-.252.663-.608.871-1.068.219-.46.329-1.008.329-1.643 0-.647-.11-1.194-.329-1.644-.219-.449-.515-.788-.887-1.019a2.251 2.251 0 0 0-1.249-.361c-.723 0-1.315.263-1.775.789-.46.526-.69 1.282-.69 2.268zm10.477 4.355h-1.676v-11.8h1.676v11.8zm3.964 0h-1.66v-8.71h1.66v8.71zm.361-10.732c0 .307-.115.57-.345.789-.219.208-.504.312-.854.312-.362 0-.658-.104-.888-.312a1.075 1.075 0 0 1-.328-.789c0-.328.109-.591.328-.789.23-.208.526-.312.888-.312.35 0 .635.104.854.312.23.198.345.461.345.789zm1.319 6.377c0-.877.158-1.655.476-2.334.318-.69.767-1.227 1.348-1.611.58-.383 1.26-.575 2.038-.575.58 0 1.112.148 1.594.444.493.285.893.69 1.199 1.216v-4.585h1.66v11.8h-1.545v-1.562a3.369 3.369 0 0 1-1.232 1.282 3.25 3.25 0 0 1-1.676.444c-.778 0-1.458-.192-2.038-.575a3.895 3.895 0 0 1-1.348-1.611c-.318-.69-.476-1.468-.476-2.333zm1.725 0c0 .975.23 1.725.69 2.251.461.526 1.052.789 1.775.789.482 0 .904-.121 1.266-.362.372-.252.663-.608.871-1.068.219-.46.328-1.008.328-1.643 0-.647-.109-1.194-.328-1.644-.219-.449-.515-.788-.888-1.019a2.25 2.25 0 0 0-1.249-.361c-.723 0-1.314.263-1.775.789-.46.526-.69 1.282-.69 2.268zm8.273 0c0-.877.159-1.655.477-2.334.328-.69.783-1.227 1.364-1.611.591-.383 1.287-.575 2.087-.575.635 0 1.189.148 1.66.444.482.285.876.701 1.183 1.249v-1.528h1.545v8.71h-1.545v-1.562a3.379 3.379 0 0 1-1.233 1.282 3.247 3.247 0 0 1-1.676.444c-.778 0-1.457-.192-2.038-.575a3.893 3.893 0 0 1-1.347-1.611c-.318-.69-.477-1.468-.477-2.333zm1.726 0c0 .975.23 1.725.69 2.251.46.526 1.052.789 1.775.789.482 0 .904-.121 1.265-.362.373-.252.663-.608.871-1.068.219-.46.329-1.008.329-1.643 0-.647-.11-1.194-.329-1.644-.219-.449-.515-.788-.887-1.019a2.251 2.251 0 0 0-1.249-.361c-.723 0-1.315.263-1.775.789-.46.526-.69 1.282-.69 2.268zm13.715 2.744v1.463c-.252.12-.499.203-.74.246a3.93 3.93 0 0 1-.739.066c-.537 0-1.014-.099-1.43-.296a2.142 2.142 0 0 1-.953-.92c-.23-.416-.345-.942-.345-1.578v-4.667h-1.923v-1.413h1.923v-2.581h1.659v2.581h2.63v1.413h-2.63v4.289c0 .603.132 1.025.395 1.266.274.241.63.361 1.068.361.197 0 .384-.016.559-.049.186-.044.361-.104.526-.181zm3.326 1.611h-1.66v-8.71h1.66v8.71zm.361-10.732c0 .307-.115.57-.345.789-.219.208-.504.312-.854.312-.362 0-.658-.104-.888-.312a1.075 1.075 0 0 1-.328-.789c0-.328.109-.591.328-.789.23-.208.526-.312.888-.312.35 0 .635.104.854.312.23.198.345.461.345.789zm5.591 10.896a4.385 4.385 0 0 1-1.709-.329 4.168 4.168 0 0 1-1.347-.953 4.657 4.657 0 0 1-.904-1.446 5.007 5.007 0 0 1-.312-1.791c0-.647.104-1.244.312-1.792.219-.547.52-1.024.904-1.429a3.862 3.862 0 0 1 1.347-.954 4.22 4.22 0 0 1 1.709-.345c.625 0 1.195.115 1.71.345.526.219.975.537 1.347.954.384.405.68.882.888 1.429.219.548.328 1.145.328 1.792 0 .646-.109 1.243-.328 1.791a4.422 4.422 0 0 1-.888 1.446 3.945 3.945 0 0 1-1.347.953 4.31 4.31 0 0 1-1.71.329zm0-1.463c.483 0 .915-.12 1.299-.361.394-.252.701-.608.92-1.068.23-.461.345-1.003.345-1.627 0-.636-.115-1.178-.345-1.627a2.41 2.41 0 0 0-.92-1.052 2.39 2.39 0 0 0-1.299-.362c-.471 0-.903.121-1.298.362-.383.241-.69.592-.92 1.052-.219.449-.329.991-.329 1.627 0 .624.11 1.166.329 1.627.23.46.537.816.92 1.068.395.241.827.361 1.298.361zm7.625-3.615v4.914h-1.66v-8.71h1.545v1.446c.296-.482.68-.871 1.151-1.167a3.046 3.046 0 0 1 1.627-.444c.898 0 1.616.28 2.153.838.547.559.821 1.359.821 2.4v5.637h-1.66v-5.078c0-.745-.158-1.321-.476-1.726-.318-.405-.789-.608-1.414-.608-.383 0-.734.104-1.051.312-.318.197-.57.482-.756.855-.187.372-.28.816-.28 1.331z"/><path fill="#20BF6B" fill-rule="evenodd" d="M206.173 135.432c6.555 0 11.869-5.314 11.869-11.869s-5.314-11.869-11.869-11.869-11.869 5.314-11.869 11.869 5.314 11.869 11.869 11.869zm5.5-13.787a1.482 1.482 0 1 0-2.098-2.098l-4.885 4.885-1.919-1.918a1.484 1.484 0 0 0-2.098 2.098l2.968 2.968a1.484 1.484 0 0 0 2.098 0l5.934-5.935z" clip-rule="evenodd"/><circle cx="206.173" cy="123.564" r="14.608" stroke="#20BF6B" stroke-width="1.826"/><rect width="202.694" height="50.042" x="28.5" y="98.543" stroke="#D1D5DB" rx="9.5"/><path fill="#111827" d="M263.325 126.178c0 1.074-.367 1.907-1.101 2.498-.723.592-1.698.888-2.926.888h-4.322v-11.8h4.092c1.195 0 2.126.268 2.794.805.679.526 1.019 1.288 1.019 2.285 0 .558-.159 1.062-.476 1.512-.318.449-.762.799-1.332 1.051.734.208 1.293.554 1.677 1.036.383.471.575 1.046.575 1.725zm-4.372-6.968h-2.317v3.55h2.317c.712 0 1.255-.159 1.627-.477.384-.317.576-.75.576-1.298s-.192-.981-.576-1.298c-.372-.318-.915-.477-1.627-.477zm.23 4.996h-2.547v3.912h2.547c.767 0 1.359-.176 1.775-.526.428-.351.641-.839.641-1.463 0-.603-.213-1.074-.641-1.413-.416-.34-1.008-.51-1.775-.51zm5.469 1.003c0-.877.159-1.655.477-2.334.328-.69.783-1.227 1.364-1.611.591-.383 1.287-.575 2.087-.575.635 0 1.189.148 1.66.444.482.285.876.701 1.183 1.249v-1.528h1.545v8.71h-1.545v-1.562a3.379 3.379 0 0 1-1.233 1.282 3.247 3.247 0 0 1-1.676.444c-.778 0-1.457-.192-2.038-.575a3.893 3.893 0 0 1-1.347-1.611c-.318-.69-.477-1.468-.477-2.333zm1.726 0c0 .975.23 1.725.69 2.251.46.526 1.052.789 1.775.789.482 0 .904-.121 1.265-.362.373-.252.663-.608.871-1.068.219-.46.329-1.008.329-1.643 0-.647-.11-1.194-.329-1.644-.219-.449-.515-.788-.887-1.019a2.251 2.251 0 0 0-1.249-.361c-.723 0-1.315.263-1.775.789-.46.526-.69 1.282-.69 2.268zm10.461-.559v4.914h-1.66v-8.71h1.545v1.446a3.554 3.554 0 0 1 1.15-1.167 3.046 3.046 0 0 1 1.627-.444c.898 0 1.616.28 2.153.838.548.559.822 1.359.822 2.4v5.637h-1.66v-5.078c0-.745-.159-1.321-.477-1.726-.317-.405-.789-.608-1.413-.608a1.88 1.88 0 0 0-1.052.312c-.318.197-.57.482-.756.855-.186.372-.279.816-.279 1.331zm9.501 4.914h-1.66v-11.8h1.66v6.985l3.73-3.895h1.956L288 125.077l4.404 4.487h-2.136l-3.928-4.125v4.125zm10.041-4.355c0-.877.159-1.655.477-2.334.328-.69.783-1.227 1.364-1.611.591-.383 1.287-.575 2.087-.575.635 0 1.189.148 1.66.444.482.285.876.701 1.183 1.249v-1.528h1.545v8.71h-1.545v-1.562a3.379 3.379 0 0 1-1.233 1.282 3.247 3.247 0 0 1-1.676.444c-.778 0-1.457-.192-2.038-.575a3.893 3.893 0 0 1-1.347-1.611c-.318-.69-.477-1.468-.477-2.333zm1.726 0c0 .975.23 1.725.69 2.251.46.526 1.052.789 1.775.789.482 0 .904-.121 1.265-.362.373-.252.663-.608.871-1.068.219-.46.329-1.008.329-1.643 0-.647-.11-1.194-.329-1.644-.219-.449-.515-.788-.887-1.019a2.251 2.251 0 0 0-1.249-.361c-.723 0-1.315.263-1.775.789-.46.526-.69 1.282-.69 2.268zm12.236 4.535c-.8 0-1.507-.191-2.12-.575a4.031 4.031 0 0 1-1.43-1.594c-.34-.69-.51-1.479-.51-2.366 0-.877.176-1.655.526-2.334a4.002 4.002 0 0 1 1.446-1.594c.614-.395 1.31-.592 2.088-.592.723 0 1.364.154 1.922.46.57.296 1.036.724 1.397 1.282.373.548.608 1.2.707 1.956h-1.742c-.088-.701-.334-1.249-.74-1.643-.405-.395-.914-.592-1.528-.592-.482 0-.898.131-1.249.394-.351.252-.625.603-.822 1.052-.197.449-.296.986-.296 1.611 0 .613.099 1.15.296 1.61.197.46.471.816.822 1.068.351.252.767.378 1.249.378.624 0 1.134-.197 1.528-.591.406-.395.658-.942.756-1.644h1.726c-.088.767-.312 1.43-.674 1.989a3.818 3.818 0 0 1-1.397 1.282c-.57.296-1.221.443-1.955.443zm9.051 0c-.8 0-1.506-.191-2.12-.575a4.046 4.046 0 0 1-1.43-1.594c-.339-.69-.509-1.479-.509-2.366 0-.877.175-1.655.526-2.334a3.995 3.995 0 0 1 1.446-1.594c.614-.395 1.309-.592 2.087-.592.723 0 1.364.154 1.923.46.57.296 1.035.724 1.397 1.282.372.548.608 1.2.707 1.956h-1.742c-.088-.701-.335-1.249-.74-1.643-.405-.395-.915-.592-1.528-.592-.482 0-.899.131-1.249.394-.351.252-.625.603-.822 1.052-.197.449-.296.986-.296 1.611 0 .613.099 1.15.296 1.61.197.46.471.816.822 1.068.35.252.767.378 1.249.378.624 0 1.134-.197 1.528-.591.405-.395.657-.942.756-1.644h1.726c-.088.767-.313 1.43-.674 1.989a3.826 3.826 0 0 1-1.397 1.282c-.57.296-1.222.443-1.956.443zm9.265-.016a4.385 4.385 0 0 1-1.709-.329 4.168 4.168 0 0 1-1.347-.953 4.657 4.657 0 0 1-.904-1.446 5.007 5.007 0 0 1-.312-1.791c0-.647.104-1.244.312-1.792.219-.547.52-1.024.904-1.429a3.862 3.862 0 0 1 1.347-.954 4.22 4.22 0 0 1 1.709-.345c.625 0 1.195.115 1.71.345.526.219.975.537 1.347.954.384.405.68.882.888 1.429.219.548.328 1.145.328 1.792 0 .646-.109 1.243-.328 1.791a4.422 4.422 0 0 1-.888 1.446 3.945 3.945 0 0 1-1.347.953 4.31 4.31 0 0 1-1.71.329zm0-1.463c.483 0 .915-.12 1.299-.361.394-.252.701-.608.92-1.068.23-.461.345-1.003.345-1.627 0-.636-.115-1.178-.345-1.627a2.41 2.41 0 0 0-.92-1.052 2.39 2.39 0 0 0-1.299-.362c-.471 0-.903.121-1.298.362-.383.241-.69.592-.92 1.052-.219.449-.329.991-.329 1.627 0 .624.11 1.166.329 1.627.23.46.537.816.92 1.068.395.241.827.361 1.298.361zm11.405-2.284v-5.127h1.66v8.71h-1.545V128.2c-.219.438-.57.805-1.052 1.101a3.102 3.102 0 0 1-1.61.427 3.442 3.442 0 0 1-1.561-.345c-.45-.23-.8-.586-1.052-1.068-.241-.493-.362-1.112-.362-1.857v-5.604h1.66v5.275c0 .756.17 1.304.51 1.643.339.329.783.493 1.331.493a1.93 1.93 0 0 0 1.019-.279c.306-.197.547-.466.723-.805.186-.351.279-.751.279-1.2zm5.625-1.331v4.914h-1.66v-8.71h1.545v1.446a3.554 3.554 0 0 1 1.15-1.167 3.048 3.048 0 0 1 1.627-.444c.899 0 1.616.28 2.153.838.548.559.822 1.359.822 2.4v5.637h-1.66v-5.078c0-.745-.159-1.321-.476-1.726-.318-.405-.789-.608-1.414-.608-.383 0-.734.104-1.052.312a2.068 2.068 0 0 0-.756.855c-.186.372-.279.816-.279 1.331zm12.723 3.303v1.463c-.252.12-.499.203-.74.246a3.93 3.93 0 0 1-.739.066c-.537 0-1.014-.099-1.43-.296a2.147 2.147 0 0 1-.953-.92c-.23-.416-.345-.942-.345-1.578v-4.667h-1.923v-1.413h1.923v-2.581h1.66v2.581h2.629v1.413h-2.629v4.289c0 .603.131 1.025.394 1.266.274.241.63.361 1.068.361.197 0 .384-.016.559-.049.186-.044.362-.104.526-.181zm12.332-7.099-3.271 8.71h-1.807l-3.271-8.71h1.791l2.416 6.803 2.449-6.803h1.693zm.313 4.355c0-.877.159-1.655.477-2.334.328-.69.783-1.227 1.364-1.611.591-.383 1.287-.575 2.087-.575.635 0 1.189.148 1.66.444.482.285.876.701 1.183 1.249v-1.528h1.545v8.71h-1.545v-1.562a3.379 3.379 0 0 1-1.233 1.282 3.247 3.247 0 0 1-1.676.444c-.778 0-1.457-.192-2.038-.575a3.893 3.893 0 0 1-1.347-1.611c-.318-.69-.477-1.468-.477-2.333zm1.726 0c0 .975.23 1.725.69 2.251.46.526 1.052.789 1.775.789.482 0 .904-.121 1.265-.362.373-.252.663-.608.871-1.068.219-.46.329-1.008.329-1.643 0-.647-.11-1.194-.329-1.644-.219-.449-.515-.788-.887-1.019a2.251 2.251 0 0 0-1.249-.361c-.723 0-1.315.263-1.775.789-.46.526-.69 1.282-.69 2.268zm10.477 4.355h-1.676v-11.8h1.676v11.8zm3.964 0h-1.66v-8.71h1.66v8.71zm.361-10.732c0 .307-.115.57-.345.789-.219.208-.504.312-.854.312-.362 0-.658-.104-.888-.312a1.075 1.075 0 0 1-.328-.789c0-.328.109-.591.328-.789.23-.208.526-.312.888-.312.35 0 .635.104.854.312.23.198.345.461.345.789zm1.319 6.377c0-.877.159-1.655.476-2.334.318-.69.767-1.227 1.348-1.611.581-.383 1.26-.575 2.038-.575.58 0 1.112.148 1.594.444.493.285.893.69 1.199 1.216v-4.585h1.66v11.8h-1.544v-1.562a3.379 3.379 0 0 1-1.233 1.282 3.25 3.25 0 0 1-1.676.444c-.778 0-1.457-.192-2.038-.575a3.895 3.895 0 0 1-1.348-1.611c-.317-.69-.476-1.468-.476-2.333zm1.725 0c0 .975.23 1.725.69 2.251.461.526 1.052.789 1.775.789.482 0 .904-.121 1.266-.362.372-.252.663-.608.871-1.068.219-.46.328-1.008.328-1.643 0-.647-.109-1.194-.328-1.644-.219-.449-.515-.788-.888-1.019a2.247 2.247 0 0 0-1.249-.361c-.723 0-1.314.263-1.775.789-.46.526-.69 1.282-.69 2.268zm8.273 0c0-.877.159-1.655.477-2.334.328-.69.783-1.227 1.364-1.611.591-.383 1.287-.575 2.087-.575.635 0 1.189.148 1.66.444.482.285.876.701 1.183 1.249v-1.528h1.545v8.71h-1.545v-1.562a3.379 3.379 0 0 1-1.233 1.282 3.244 3.244 0 0 1-1.676.444c-.778 0-1.457-.192-2.038-.575a3.893 3.893 0 0 1-1.347-1.611c-.318-.69-.477-1.468-.477-2.333zm1.726 0c0 .975.23 1.725.69 2.251.46.526 1.052.789 1.775.789.482 0 .904-.121 1.265-.362.373-.252.663-.608.871-1.068.219-.46.329-1.008.329-1.643 0-.647-.11-1.194-.329-1.644-.219-.449-.515-.788-.887-1.019a2.251 2.251 0 0 0-1.249-.361c-.723 0-1.315.263-1.775.789-.46.526-.69 1.282-.69 2.268zm13.715 2.744v1.463c-.252.12-.499.203-.74.246a3.93 3.93 0 0 1-.739.066c-.537 0-1.014-.099-1.43-.296a2.147 2.147 0 0 1-.953-.92c-.23-.416-.345-.942-.345-1.578v-4.667h-1.923v-1.413h1.923v-2.581h1.659v2.581h2.63v1.413h-2.63v4.289c0 .603.132 1.025.395 1.266.274.241.63.361 1.068.361.197 0 .384-.016.559-.049.186-.044.361-.104.526-.181zm3.326 1.611h-1.66v-8.71h1.66v8.71zm.361-10.732c0 .307-.115.57-.345.789-.219.208-.504.312-.854.312-.362 0-.658-.104-.888-.312a1.075 1.075 0 0 1-.328-.789c0-.328.109-.591.328-.789.23-.208.526-.312.888-.312.35 0 .635.104.854.312.23.198.345.461.345.789zm5.592 10.896a4.386 4.386 0 0 1-1.71-.329 4.168 4.168 0 0 1-1.347-.953 4.657 4.657 0 0 1-.904-1.446 5.007 5.007 0 0 1-.312-1.791c0-.647.104-1.244.312-1.792.219-.547.52-1.024.904-1.429a3.862 3.862 0 0 1 1.347-.954 4.221 4.221 0 0 1 1.71-.345c.624 0 1.194.115 1.709.345.526.219.975.537 1.347.954.384.405.68.882.888 1.429.219.548.328 1.145.328 1.792 0 .646-.109 1.243-.328 1.791a4.422 4.422 0 0 1-.888 1.446 3.945 3.945 0 0 1-1.347.953 4.308 4.308 0 0 1-1.709.329zm0-1.463c.482 0 .914-.12 1.298-.361.394-.252.701-.608.92-1.068.23-.461.345-1.003.345-1.627 0-.636-.115-1.178-.345-1.627a2.41 2.41 0 0 0-.92-1.052 2.39 2.39 0 0 0-1.298-.362c-.472 0-.904.121-1.299.362-.383.241-.69.592-.92 1.052-.219.449-.329.991-.329 1.627 0 .624.11 1.166.329 1.627.23.46.537.816.92 1.068.395.241.827.361 1.299.361zm7.624-3.615v4.914h-1.66v-8.71h1.545v1.446c.296-.482.68-.871 1.151-1.167a3.046 3.046 0 0 1 1.627-.444c.898 0 1.616.28 2.153.838.547.559.821 1.359.821 2.4v5.637h-1.66v-5.078c0-.745-.158-1.321-.476-1.726-.318-.405-.789-.608-1.414-.608-.383 0-.734.104-1.051.312-.318.197-.57.482-.756.855-.187.372-.28.816-.28 1.331z"/><path fill="#20BF6B" fill-rule="evenodd" d="M462.868 135.432c6.555 0 11.869-5.314 11.869-11.869s-5.314-11.869-11.869-11.869-11.869 5.314-11.869 11.869 5.314 11.869 11.869 11.869zm5.5-13.787a1.484 1.484 0 0 0-2.098-2.098l-4.886 4.885-1.918-1.918a1.484 1.484 0 0 0-2.098 2.098l2.967 2.968a1.484 1.484 0 0 0 2.098 0l5.935-5.935z" clip-rule="evenodd"/><circle cx="462.868" cy="123.564" r="14.608" stroke="#20BF6B" stroke-width="1.826"/><rect width="243.694" height="50.042" x="244.194" y="98.543" stroke="#D1D5DB" rx="9.5"/><path fill="#111827" d="M100.874 188.497H98.59v4.109h-1.808v-11.8h4.092c.876 0 1.638.148 2.284.444.658.285 1.167.712 1.529 1.282.361.559.542 1.254.542 2.087 0 .822-.181 1.523-.542 2.104-.362.569-.871 1.007-1.529 1.314-.646.307-1.408.46-2.284.46zm-.016-6.162H98.59v4.634h2.268c.799 0 1.424-.208 1.873-.624.46-.417.69-.987.69-1.71 0-.734-.23-1.298-.69-1.692-.449-.406-1.074-.608-1.873-.608zm9.536 10.435a4.404 4.404 0 0 1-1.71-.328 4.182 4.182 0 0 1-1.347-.954 4.657 4.657 0 0 1-.904-1.446 5.007 5.007 0 0 1-.312-1.791 5 5 0 0 1 .312-1.791c.219-.548.52-1.025.904-1.43a3.869 3.869 0 0 1 1.347-.953 4.222 4.222 0 0 1 1.71-.346c.624 0 1.194.116 1.709.346.526.219.975.536 1.347.953.384.405.68.882.888 1.43.219.547.329 1.144.329 1.791 0 .646-.11 1.243-.329 1.791a4.422 4.422 0 0 1-.888 1.446 3.947 3.947 0 0 1-1.347.954 4.325 4.325 0 0 1-1.709.328zm0-1.462a2.39 2.39 0 0 0 1.298-.362c.394-.252.701-.608.92-1.068.23-.46.345-1.003.345-1.627 0-.636-.115-1.178-.345-1.627a2.389 2.389 0 0 0-2.218-1.413c-.471 0-.904.12-1.299.361-.383.241-.69.592-.92 1.052-.219.449-.329.991-.329 1.627 0 .624.11 1.167.329 1.627.23.46.537.816.92 1.068.395.241.828.362 1.299.362zm7.641 1.298h-1.676v-11.8h1.676v11.8zm3.964 0h-1.66v-8.71h1.66v8.71zm.361-10.732c0 .307-.115.57-.345.789-.219.208-.504.313-.855.313-.361 0-.657-.105-.887-.313a1.076 1.076 0 0 1-.329-.789c0-.328.11-.591.329-.788.23-.209.526-.313.887-.313.351 0 .636.104.855.313.23.197.345.46.345.788zm6.857 9.121v1.463a2.926 2.926 0 0 1-.74.247c-.23.043-.476.065-.739.065-.537 0-1.014-.098-1.43-.296a2.137 2.137 0 0 1-.953-.92c-.23-.416-.345-.942-.345-1.578v-4.667h-1.923v-1.413h1.923v-2.58h1.659v2.58h2.63v1.413h-2.63v4.289c0 .603.132 1.025.395 1.266.274.241.63.361 1.068.361.197 0 .383-.016.559-.049.186-.044.361-.104.526-.181zm3.326 1.611h-1.66v-8.71h1.66v8.71zm.361-10.732c0 .307-.115.57-.345.789-.219.208-.504.313-.854.313-.362 0-.658-.105-.888-.313a1.075 1.075 0 0 1-.328-.789c0-.328.109-.591.328-.788.23-.209.526-.313.888-.313.35 0 .635.104.854.313.23.197.345.46.345.788zm5.378 10.913c-.8 0-1.507-.192-2.12-.575a4.042 4.042 0 0 1-1.43-1.595c-.34-.69-.509-1.479-.509-2.366 0-.877.175-1.654.525-2.334a4.004 4.004 0 0 1 1.447-1.594c.613-.394 1.309-.592 2.087-.592.723 0 1.364.154 1.923.461a3.645 3.645 0 0 1 1.397 1.282c.372.547.608 1.199.706 1.955h-1.742c-.087-.701-.334-1.249-.739-1.643-.406-.395-.915-.592-1.529-.592-.482 0-.898.132-1.249.395-.35.252-.624.602-.821 1.051-.198.45-.296.986-.296 1.611 0 .613.098 1.15.296 1.61.197.461.471.817.821 1.069.351.252.767.378 1.249.378.625 0 1.134-.198 1.529-.592.405-.394.657-.942.756-1.643h1.725c-.087.767-.312 1.429-.674 1.988a3.818 3.818 0 0 1-1.397 1.282c-.569.296-1.221.444-1.955.444zm4.992-4.536c0-.877.159-1.654.477-2.334.328-.69.783-1.227 1.364-1.61.591-.384 1.287-.576 2.087-.576.635 0 1.189.148 1.66.444.482.285.876.701 1.183 1.249v-1.528h1.545v8.71h-1.545v-1.561a3.391 3.391 0 0 1-1.232 1.282 3.259 3.259 0 0 1-1.677.443c-.778 0-1.457-.191-2.038-.575a3.898 3.898 0 0 1-1.347-1.61c-.318-.691-.477-1.469-.477-2.334zm1.726 0c0 .975.23 1.725.69 2.251.46.526 1.052.789 1.775.789.482 0 .904-.12 1.265-.361.373-.252.663-.608.871-1.069.219-.46.329-1.008.329-1.643 0-.646-.11-1.194-.329-1.643-.219-.45-.515-.789-.887-1.019a2.252 2.252 0 0 0-1.249-.362c-.723 0-1.315.263-1.775.789-.46.526-.69 1.282-.69 2.268zm10.477 4.355h-1.676v-11.8h1.676v11.8zm9.321.164c-.843 0-1.583-.186-2.218-.558a3.94 3.94 0 0 1-1.463-1.611c-.351-.69-.526-1.49-.526-2.399 0-.866.181-1.633.542-2.301a4.11 4.11 0 0 1 1.479-1.578c.625-.394 1.337-.592 2.137-.592.657 0 1.243.126 1.758.378.526.242.97.587 1.332 1.036.372.438.641.958.805 1.561.164.592.208 1.244.131 1.956h-7.214v-1.101h5.456c-.033-.811-.258-1.441-.674-1.89-.405-.46-.948-.691-1.627-.691-.493 0-.926.132-1.298.395-.362.252-.647.619-.855 1.101-.197.471-.296 1.046-.296 1.726 0 .679.099 1.265.296 1.758.197.482.482.855.855 1.118.372.263.821.394 1.347.394.625 0 1.14-.159 1.545-.477.417-.317.69-.761.822-1.331h1.643c-.208.964-.668 1.726-1.38 2.285-.701.547-1.567.821-2.597.821zm6.277-.164h-1.874l3.09-4.454-2.892-4.256h1.922l2.153 3.287 2.153-3.287h1.791l-2.859 4.306 3.057 4.404h-1.907l-2.333-3.468-2.301 3.468zm16.19-4.355c0 .876-.158 1.654-.476 2.334a3.892 3.892 0 0 1-1.348 1.61c-.569.384-1.243.575-2.021.575a3.105 3.105 0 0 1-1.611-.427 3.442 3.442 0 0 1-1.199-1.216v4.651h-1.66v-11.882h1.545v1.594a3.337 3.337 0 0 1 1.232-1.298 3.245 3.245 0 0 1 1.693-.461c.778 0 1.452.198 2.021.592.581.384 1.03.915 1.348 1.594.318.68.476 1.457.476 2.334zm-1.725 0c0-.975-.236-1.726-.707-2.252a2.215 2.215 0 0 0-1.758-.805c-.46 0-.877.121-1.249.362-.373.241-.669.586-.888 1.035-.219.449-.328 1.003-.328 1.66 0 .635.109 1.183.328 1.643.219.45.515.795.888 1.036a2.25 2.25 0 0 0 1.249.361c.712 0 1.298-.263 1.758-.789.471-.526.707-1.276.707-2.251zm7.057 4.519a4.396 4.396 0 0 1-1.709-.328 4.175 4.175 0 0 1-1.348-.954 4.657 4.657 0 0 1-.904-1.446 5.007 5.007 0 0 1-.312-1.791 5 5 0 0 1 .312-1.791c.219-.548.52-1.025.904-1.43a3.864 3.864 0 0 1 1.348-.953 4.213 4.213 0 0 1 1.709-.346c.624 0 1.194.116 1.709.346.526.219.975.536 1.347.953.384.405.68.882.888 1.43.219.547.329 1.144.329 1.791 0 .646-.11 1.243-.329 1.791a4.422 4.422 0 0 1-.888 1.446 3.947 3.947 0 0 1-1.347.954 4.325 4.325 0 0 1-1.709.328zm0-1.462c.482 0 .915-.121 1.298-.362.394-.252.701-.608.92-1.068.23-.46.345-1.003.345-1.627 0-.636-.115-1.178-.345-1.627a2.41 2.41 0 0 0-.92-1.052 2.386 2.386 0 0 0-1.298-.361c-.471 0-.904.12-1.299.361-.383.241-.69.592-.92 1.052-.219.449-.329.991-.329 1.627 0 .624.11 1.167.329 1.627.23.46.537.816.92 1.068.395.241.828.362 1.299.362zm12.867-1.299c0 .855-.318 1.529-.953 2.022-.636.493-1.534.739-2.695.739-1.14 0-2.044-.268-2.712-.805-.657-.537-1.03-1.271-1.118-2.202h1.595c.021.548.235.98.641 1.298.416.307.958.46 1.626.46.581 0 1.047-.104 1.397-.312.362-.208.543-.515.543-.92 0-.362-.121-.636-.362-.822-.23-.186-.619-.329-1.167-.427l-1.413-.263c-.8-.154-1.419-.433-1.857-.838-.438-.417-.657-.954-.657-1.611 0-.515.137-.964.41-1.348.285-.394.68-.701 1.184-.92.504-.219 1.09-.329 1.758-.329.701 0 1.315.121 1.841.362.526.23.947.564 1.265 1.003.318.427.499.942.543 1.544h-1.595c-.054-.515-.263-.92-.624-1.216-.362-.296-.833-.444-1.413-.444-.526 0-.954.11-1.282.329a.986.986 0 0 0-.477.871c0 .351.115.619.345.805.241.176.625.318 1.151.428l1.479.279c.865.154 1.506.422 1.923.805.416.384.624.888.624 1.512zm7.252-.986v-5.127h1.66v8.71h-1.545v-1.364c-.219.438-.57.805-1.052 1.101a3.104 3.104 0 0 1-1.61.427 3.45 3.45 0 0 1-1.562-.345 2.418 2.418 0 0 1-1.051-1.068c-.241-.493-.362-1.112-.362-1.857v-5.604h1.66v5.275c0 .756.17 1.304.509 1.644.34.328.784.493 1.332.493.372 0 .712-.093 1.018-.28a2.06 2.06 0 0 0 .724-.805 2.52 2.52 0 0 0 .279-1.2zm5.625-.871v4.454h-1.66v-8.71h1.545v1.84a3.424 3.424 0 0 1 1.364-1.429 3.934 3.934 0 0 1 1.988-.526v1.725c-.624-.032-1.183.039-1.676.214a2.351 2.351 0 0 0-1.15.871c-.274.394-.411.915-.411 1.561zm8.102 4.618c-.844 0-1.584-.186-2.219-.558a3.94 3.94 0 0 1-1.463-1.611c-.35-.69-.526-1.49-.526-2.399 0-.866.181-1.633.543-2.301a4.096 4.096 0 0 1 1.479-1.578c.624-.394 1.336-.592 2.136-.592.658 0 1.244.126 1.759.378a3.64 3.64 0 0 1 1.331 1.036c.372.438.641.958.805 1.561.164.592.208 1.244.132 1.956h-7.215v-1.101h5.456c-.033-.811-.257-1.441-.674-1.89-.405-.46-.947-.691-1.627-.691-.493 0-.925.132-1.298.395-.362.252-.646.619-.855 1.101-.197.471-.295 1.046-.295 1.726 0 .679.098 1.265.295 1.758.198.482.483.855.855 1.118.373.263.822.394 1.348.394.624 0 1.139-.159 1.544-.477.417-.317.691-.761.822-1.331h1.644c-.209.964-.669 1.726-1.381 2.285-.701.547-1.567.821-2.596.821z"/><path fill="#20BF6B" fill-rule="evenodd" d="M255.673 198.475c6.555 0 11.869-5.314 11.869-11.87 0-6.555-5.314-11.869-11.869-11.869s-11.869 5.314-11.869 11.869c0 6.556 5.314 11.87 11.869 11.87zm5.5-13.788a1.482 1.482 0 1 0-2.098-2.098l-4.885 4.886-1.919-1.919a1.484 1.484 0 0 0-2.098 2.099l2.968 2.967a1.484 1.484 0 0 0 2.098 0l5.934-5.935z" clip-rule="evenodd"/><circle cx="255.673" cy="186.606" r="14.608" stroke="#20BF6B" stroke-width="1.826"/><rect width="194.694" height="50.042" x="86" y="161.585" stroke="#D1D5DB" rx="9.5"/><path fill="#111827" d="M313.104 189.155c0 .679-.181 1.293-.542 1.84-.351.548-.86.981-1.528 1.299-.669.317-1.48.476-2.433.476-.953 0-1.775-.159-2.465-.476-.679-.329-1.211-.789-1.594-1.381-.383-.591-.603-1.276-.657-2.054h1.84c.044.745.302 1.342.773 1.791.482.449 1.172.674 2.07.674.504 0 .954-.077 1.348-.23.394-.153.701-.372.92-.657.23-.285.345-.63.345-1.036 0-.493-.164-.876-.493-1.15-.328-.274-.832-.482-1.512-.625l-1.709-.328a7.203 7.203 0 0 1-1.199-.362 4.235 4.235 0 0 1-1.019-.591 2.788 2.788 0 0 1-.707-.921c-.164-.372-.247-.805-.247-1.298 0-.668.176-1.266.526-1.791a3.651 3.651 0 0 1 1.479-1.233c.636-.307 1.364-.46 2.186-.46.822 0 1.556.159 2.202.476a3.985 3.985 0 0 1 1.578 1.332c.405.569.63 1.249.674 2.037h-1.841a2.63 2.63 0 0 0-.394-1.249 2.258 2.258 0 0 0-.888-.838c-.372-.208-.81-.312-1.314-.312s-.932.093-1.282.279a1.967 1.967 0 0 0-.806.707 1.679 1.679 0 0 0-.279.937c0 .372.093.674.279.904.198.219.455.394.773.526.318.131.657.235 1.019.312l1.742.345c1.019.208 1.797.548 2.334 1.019.547.471.821 1.15.821 2.038zm1.337-.904c0-.877.159-1.654.477-2.334.328-.69.783-1.227 1.364-1.61.591-.384 1.287-.576 2.087-.576.635 0 1.189.148 1.66.444.482.285.876.701 1.183 1.249v-1.528h1.545v8.71h-1.545v-1.561a3.386 3.386 0 0 1-1.233 1.282 3.255 3.255 0 0 1-1.676.443c-.778 0-1.457-.191-2.038-.575a3.89 3.89 0 0 1-1.347-1.61c-.318-.691-.477-1.469-.477-2.334zm1.726 0c0 .975.23 1.725.69 2.251.46.526 1.052.789 1.775.789.482 0 .904-.12 1.265-.361.373-.252.663-.608.871-1.069.219-.46.329-1.008.329-1.643 0-.646-.11-1.194-.329-1.643-.219-.45-.515-.789-.887-1.019a2.252 2.252 0 0 0-1.249-.362c-.723 0-1.315.263-1.775.789-.46.526-.69 1.282-.69 2.268zm10.461-.559v4.914h-1.66v-8.71h1.545v1.446a3.544 3.544 0 0 1 1.15-1.167 3.046 3.046 0 0 1 1.627-.444c.898 0 1.616.28 2.153.839.548.558.822 1.358.822 2.399v5.637h-1.66v-5.078c0-.745-.159-1.32-.477-1.726-.318-.405-.789-.608-1.413-.608a1.88 1.88 0 0 0-1.052.312 2.06 2.06 0 0 0-.756.855c-.186.372-.279.816-.279 1.331zm11.276 5.095c-.8 0-1.507-.192-2.12-.575a4.034 4.034 0 0 1-1.43-1.595c-.34-.69-.51-1.479-.51-2.366 0-.877.176-1.654.526-2.334a4.009 4.009 0 0 1 1.446-1.594c.614-.394 1.31-.592 2.088-.592.723 0 1.364.154 1.922.461.57.295 1.036.723 1.397 1.282.373.547.608 1.199.707 1.955h-1.742c-.088-.701-.334-1.249-.74-1.643-.405-.395-.914-.592-1.528-.592-.482 0-.898.132-1.249.395-.351.252-.625.602-.822 1.051-.197.45-.296.986-.296 1.611 0 .613.099 1.15.296 1.61.197.461.471.817.822 1.069s.767.378 1.249.378c.624 0 1.134-.198 1.528-.592.406-.394.658-.942.756-1.643h1.726c-.088.767-.312 1.429-.674 1.988a3.818 3.818 0 0 1-1.397 1.282c-.57.296-1.221.444-1.955.444zm10.611-1.792v1.463a2.926 2.926 0 0 1-.74.247c-.23.043-.477.065-.74.065-.536 0-1.013-.098-1.429-.296a2.144 2.144 0 0 1-.954-.92c-.23-.416-.345-.942-.345-1.578v-4.667h-1.922v-1.413h1.922v-2.58h1.66v2.58h2.63v1.413h-2.63v4.289c0 .603.132 1.025.395 1.266.274.241.63.361 1.068.361.197 0 .383-.016.559-.049.186-.044.361-.104.526-.181zm3.326 1.611h-1.66v-8.71h1.66v8.71zm.361-10.732c0 .307-.115.57-.345.789-.219.208-.504.313-.855.313-.361 0-.657-.105-.887-.313a1.076 1.076 0 0 1-.329-.789c0-.328.11-.591.329-.788.23-.209.526-.313.887-.313.351 0 .636.104.855.313.23.197.345.46.345.788zm5.591 10.896a4.403 4.403 0 0 1-1.709-.328 4.17 4.17 0 0 1-1.347-.954 4.657 4.657 0 0 1-.904-1.446 4.985 4.985 0 0 1-.313-1.791c0-.647.104-1.244.313-1.791.219-.548.52-1.025.904-1.43a3.86 3.86 0 0 1 1.347-.953 4.22 4.22 0 0 1 1.709-.346c.625 0 1.194.116 1.709.346.526.219.976.536 1.348.953.384.405.679.882.887 1.43.22.547.329 1.144.329 1.791 0 .646-.109 1.243-.329 1.791a4.42 4.42 0 0 1-.887 1.446 3.951 3.951 0 0 1-1.348.954 4.321 4.321 0 0 1-1.709.328zm0-1.462c.482 0 .915-.121 1.299-.362.394-.252.701-.608.92-1.068.23-.46.345-1.003.345-1.627 0-.636-.115-1.178-.345-1.627a2.392 2.392 0 0 0-2.219-1.413c-.471 0-.904.12-1.298.361-.383.241-.69.592-.92 1.052-.219.449-.329.991-.329 1.627 0 .624.11 1.167.329 1.627.23.46.537.816.92 1.068.394.241.827.362 1.298.362zm7.625-3.616v4.914h-1.66v-8.71h1.545v1.446a3.554 3.554 0 0 1 1.15-1.167 3.05 3.05 0 0 1 1.627-.444c.899 0 1.616.28 2.153.839.548.558.822 1.358.822 2.399v5.637h-1.66v-5.078c0-.745-.159-1.32-.476-1.726-.318-.405-.789-.608-1.414-.608-.383 0-.734.104-1.052.312a2.074 2.074 0 0 0-.756.855c-.186.372-.279.816-.279 1.331zm14.744 2.317c0 .855-.318 1.529-.954 2.022-.635.493-1.533.739-2.695.739-1.139 0-2.043-.268-2.711-.805-.658-.537-1.03-1.271-1.118-2.202h1.594c.022.548.236.98.641 1.298.416.307.959.46 1.627.46.581 0 1.046-.104 1.397-.312.362-.208.542-.515.542-.92 0-.362-.12-.636-.361-.822-.23-.186-.619-.329-1.167-.427l-1.413-.263c-.8-.154-1.419-.433-1.857-.838-.439-.417-.658-.954-.658-1.611 0-.515.137-.964.411-1.348.285-.394.679-.701 1.183-.92.504-.219 1.09-.329 1.759-.329.701 0 1.314.121 1.84.362.526.23.948.564 1.266 1.003.318.427.498.942.542 1.544h-1.594c-.055-.515-.263-.92-.624-1.216-.362-.296-.833-.444-1.414-.444-.526 0-.953.11-1.282.329a.987.987 0 0 0-.476.871c0 .351.115.619.345.805.241.176.624.318 1.15.428l1.479.279c.866.154 1.507.422 1.923.805.416.384.625.888.625 1.512z"/><path fill="#20BF6B" fill-rule="evenodd" d="M405.368 198.475c6.555 0 11.869-5.314 11.869-11.87 0-6.555-5.314-11.869-11.869-11.869s-11.869 5.314-11.869 11.869c0 6.556 5.314 11.87 11.869 11.87zm5.5-13.788a1.484 1.484 0 0 0-2.098-2.098l-4.886 4.886-1.918-1.919a1.484 1.484 0 0 0-2.098 2.099l2.967 2.967a1.484 1.484 0 0 0 2.098 0l5.935-5.935z" clip-rule="evenodd"/><circle cx="405.368" cy="186.606" r="14.608" stroke="#20BF6B" stroke-width="1.826"/><rect width="136.694" height="50.042" x="293.694" y="161.585" stroke="#D1D5DB" rx="9.5"/><rect width="314.983" height="112.432" x="100.517" y="250.067" fill="#fff" rx="9.817"/><path fill="#374151" d="M126.416 287.249H124.5v3.968h-2.578v-12.175h4.494c.995 0 1.848.153 2.56.458.724.305 1.278.757 1.662 1.356.396.6.594 1.346.594 2.239 0 .882-.198 1.633-.594 2.255-.384.622-.938 1.097-1.662 1.425-.712.316-1.565.474-2.56.474zm-.017-6.036H124.5v3.866h1.899c.723 0 1.283-.175 1.678-.526.396-.362.594-.842.594-1.441 0-.599-.198-1.063-.594-1.391-.395-.339-.955-.508-1.678-.508zm9.341 5.341h5.392l.679 2.052h-6.817l.746-2.052zm5.952 4.663-3.256-9.36-3.323 9.36h-2.595l4.579-12.175h2.814l4.545 12.175h-2.764zm14.672-3.781c0 .769-.197 1.453-.593 2.052-.396.588-.961 1.051-1.696 1.39-.723.339-1.599.509-2.628.509-1.018 0-1.905-.17-2.662-.509-.747-.35-1.334-.842-1.764-1.475-.43-.633-.678-1.379-.746-2.238h2.611c.034.678.26 1.215.679 1.61.429.396 1.04.594 1.831.594a3.23 3.23 0 0 0 1.153-.187c.339-.124.605-.305.797-.542.192-.238.288-.515.288-.831 0-.384-.141-.69-.424-.916-.282-.237-.684-.407-1.204-.508l-2.001-.391a5.165 5.165 0 0 1-1.288-.39 3.864 3.864 0 0 1-1.035-.678 2.933 2.933 0 0 1-.695-.983 3.263 3.263 0 0 1-.254-1.323c0-.723.192-1.368.576-1.933.396-.565.933-1.006 1.611-1.323.69-.316 1.475-.475 2.357-.475.916 0 1.73.17 2.442.509.712.339 1.289.82 1.73 1.442.441.61.684 1.339.729 2.187h-2.612a2.235 2.235 0 0 0-.339-1.119 1.898 1.898 0 0 0-.78-.746 2.311 2.311 0 0 0-1.136-.272c-.418 0-.774.074-1.068.221a1.611 1.611 0 0 0-.661.559 1.326 1.326 0 0 0-.238.78c0 .272.074.498.221.679.158.181.361.328.61.441.249.101.52.181.814.237l2.086.424c1.074.215 1.888.582 2.442 1.102.565.509.847 1.21.847 2.103zm12.657 0c0 .769-.197 1.453-.593 2.052-.396.588-.961 1.051-1.696 1.39-.723.339-1.599.509-2.628.509-1.018 0-1.905-.17-2.662-.509-.746-.35-1.334-.842-1.764-1.475-.429-.633-.678-1.379-.746-2.238h2.611c.034.678.26 1.215.679 1.61.429.396 1.04.594 1.831.594a3.23 3.23 0 0 0 1.153-.187c.339-.124.605-.305.797-.542.192-.238.288-.515.288-.831 0-.384-.141-.69-.424-.916-.282-.237-.683-.407-1.204-.508l-2-.391a5.16 5.16 0 0 1-1.289-.39 3.864 3.864 0 0 1-1.035-.678 2.947 2.947 0 0 1-.695-.983 3.263 3.263 0 0 1-.254-1.323c0-.723.192-1.368.576-1.933.396-.565.933-1.006 1.611-1.323.69-.316 1.476-.475 2.357-.475.916 0 1.73.17 2.442.509.712.339 1.289.82 1.73 1.442.441.61.684 1.339.729 2.187h-2.611a2.246 2.246 0 0 0-.34-1.119 1.898 1.898 0 0 0-.78-.746 2.308 2.308 0 0 0-1.136-.272c-.418 0-.774.074-1.068.221a1.611 1.611 0 0 0-.661.559 1.326 1.326 0 0 0-.238.78c0 .272.074.498.221.679.158.181.361.328.61.441.249.101.52.181.814.237l2.086.424c1.074.215 1.888.582 2.442 1.102.565.509.847 1.21.847 2.103z"/><rect width="196.42" height="8.479" x="198.929" y="280.478" fill="#D6D7F0" rx="4.239"/><rect width="49.458" height="8.479" x="198.929" y="280.478" fill="#3137B2" rx="4.239"/><ellipse cx="221.525" cy="284.717" fill="#fff" rx="1.399" ry="1.413"/><ellipse cx="246.932" cy="284.717" fill="#fff" rx="1.399" ry="1.413"/><ellipse cx="272.34" cy="284.717" fill="#fff" rx="1.399" ry="1.413"/><ellipse cx="297.748" cy="284.717" fill="#fff" rx="1.399" ry="1.413"/><ellipse cx="323.155" cy="284.717" fill="#fff" rx="1.399" ry="1.413"/><ellipse cx="348.563" cy="284.717" fill="#fff" rx="1.399" ry="1.413"/><ellipse cx="373.971" cy="284.717" fill="#fff" rx="1.399" ry="1.413"/><g filter="url(#a)"><circle cx="248.387" cy="284.717" r="12.718" fill="#F9FAFB"/><circle cx="248.387" cy="284.717" r="11.305" stroke="#3137B2" stroke-width="2.826"/></g><path fill="#374151" d="M124.5 334.348h-2.578v-12.175h7.868v2.238h-5.29v3.07h4.459v2.221H124.5v4.646zm9.981-4.663h5.393l.678 2.052h-6.817l.746-2.052zm5.952 4.663-3.255-9.36-3.324 9.36h-2.594l4.578-12.175h2.815l4.544 12.175h-2.764zm8.238 0h-2.577v-12.175h2.577v12.175zm11.771 0h-7.868v-12.175h2.577v9.852h5.291v2.323z"/><rect width="196.42" height="8.479" x="196.995" y="323.609" fill="#D6D7F0" rx="4.239"/><rect width="100.33" height="8.479" x="196.995" y="323.609" fill="#3137B2" rx="4.239"/><ellipse cx="219.59" cy="327.848" fill="#fff" rx="1.399" ry="1.413"/><ellipse cx="244.998" cy="327.848" fill="#fff" rx="1.399" ry="1.413"/><ellipse cx="270.405" cy="327.848" fill="#fff" rx="1.399" ry="1.413"/><ellipse cx="295.813" cy="327.848" fill="#fff" rx="1.399" ry="1.413"/><ellipse cx="321.221" cy="327.848" fill="#fff" rx="1.399" ry="1.413"/><ellipse cx="346.628" cy="327.848" fill="#fff" rx="1.399" ry="1.413"/><ellipse cx="372.036" cy="327.848" fill="#fff" rx="1.399" ry="1.413"/><g filter="url(#b)"><circle cx="295.911" cy="327.848" r="12.718" fill="#F9FAFB"/><circle cx="295.911" cy="327.848" r="11.305" stroke="#3137B2" stroke-width="2.826"/></g><rect width="314.983" height="112.432" x="100.517" y="250.067" stroke="#D1D5DB" stroke-width="1.033" rx="9.817"/><path fill="#374151" d="M54.61 428.377h-1.755v-8.291h5.357v1.525H54.61v2.09h3.037v1.512H54.61v3.164zm7.525 0H60.38v-8.291h3.244c1.047 0 1.86.235 2.437.705.577.462.866 1.124.866 1.986 0 .554-.166 1.047-.497 1.478-.323.423-.78.731-1.374.924l2.136 3.198h-2.09l-1.87-2.933h-1.097v2.933zm0-6.836v2.46h1.409c.53 0 .935-.1 1.212-.3.277-.208.416-.516.416-.924 0-.416-.139-.724-.416-.924-.277-.208-.681-.312-1.212-.312h-1.41zm12.69 5.312v1.524h-5.578v-8.291h5.496v1.525h-3.741v1.743h3.395v1.513h-3.395v1.986h3.822zm6.072 1.698a4.29 4.29 0 0 1-1.674-.324 4.194 4.194 0 0 1-1.34-.9 4.258 4.258 0 0 1-.9-1.375 4.56 4.56 0 0 1-.324-1.732c0-.623.108-1.197.323-1.72a4.122 4.122 0 0 1 2.24-2.263 4.29 4.29 0 0 1 1.675-.324c.6 0 1.158.108 1.674.324.516.215.966.515 1.351.9.393.385.697.839.913 1.363.215.523.323 1.097.323 1.72a4.57 4.57 0 0 1-.323 1.732 4.16 4.16 0 0 1-2.263 2.275 4.29 4.29 0 0 1-1.675.324zm0-1.571a2.39 2.39 0 0 0 1.016-.208c.308-.146.566-.346.774-.6.215-.254.377-.547.485-.878.115-.338.173-.696.173-1.074 0-.377-.058-.731-.173-1.062a2.448 2.448 0 0 0-.485-.866 2.1 2.1 0 0 0-.774-.589 2.293 2.293 0 0 0-1.016-.219c-.377 0-.716.073-1.016.219-.3.139-.558.335-.774.589a2.71 2.71 0 0 0-.485.866 3.41 3.41 0 0 0-.162 1.062c0 .378.054.736.162 1.074.116.331.277.624.485.878.216.254.474.454.774.6.3.139.639.208 1.016.208zm1.767.092 1.859 3.407h-1.778l-1.652-2.968 1.57-.439zm11.468-6.986v5.139c0 .654-.135 1.232-.404 1.732a2.84 2.84 0 0 1-1.155 1.178c-.508.277-1.124.416-1.847.416-.732 0-1.352-.139-1.86-.416a2.915 2.915 0 0 1-1.166-1.178c-.262-.5-.392-1.078-.392-1.732v-5.139h1.755v5.174c0 .338.057.639.173.9.115.262.292.466.531.612.246.139.566.208.959.208.384 0 .696-.069.935-.208.246-.146.427-.35.543-.612.115-.261.173-.562.173-.9v-5.174h1.755zm8.218 6.767v1.524h-5.577v-8.291h5.496v1.525h-3.741v1.743h3.395v1.513h-3.395v1.986h3.822zm7.724 1.524-3.799-5.785v5.785h-1.605v-8.291h1.894l3.614 5.497v-5.497h1.617v8.291h-1.721zm8.06.174c-.577 0-1.12-.108-1.628-.324a4.11 4.11 0 0 1-1.328-.924 4.49 4.49 0 0 1-.889-1.385 4.56 4.56 0 0 1-.312-1.698c0-.608.104-1.17.312-1.686.215-.523.512-.981.889-1.374.377-.392.82-.696 1.328-.912a4.007 4.007 0 0 1 1.628-.335c.731 0 1.393.15 1.986.451a3.96 3.96 0 0 1 1.478 1.258c.385.539.624 1.163.716 1.871h-1.859a2.33 2.33 0 0 0-.427-1.051 2.29 2.29 0 0 0-.809-.704 2.2 2.2 0 0 0-1.062-.254 2.37 2.37 0 0 0-.981.196 2.222 2.222 0 0 0-.751.566 2.68 2.68 0 0 0-.485.877 3.523 3.523 0 0 0-.162 1.097c0 .408.054.782.162 1.12.115.331.277.62.485.866.216.247.466.439.751.578.292.131.619.196.981.196.393 0 .751-.085 1.074-.254.323-.177.589-.416.797-.716.215-.308.358-.658.427-1.051h1.859a4.191 4.191 0 0 1-.727 1.883 3.998 3.998 0 0 1-1.467 1.258c-.593.3-1.255.451-1.986.451zm9.696-3.291v3.117h-1.756v-3.117l-2.932-5.174h1.893l1.975 3.569 2.009-3.569h1.767l-2.956 5.174z"/><g filter="url(#c)"><rect width="117.65" height="44.188" x="141.596" y="403" fill="#fff" rx="7.275"/><path fill="#374151" d="M170.116 431.339a6.084 6.084 0 0 1-2.374-.458 6.039 6.039 0 0 1-1.899-1.309 6.183 6.183 0 0 1-1.26-1.948 6.584 6.584 0 0 1-.442-2.423c0-.862.147-1.664.442-2.406a5.989 5.989 0 0 1 1.26-1.932 5.834 5.834 0 0 1 1.899-1.293 5.918 5.918 0 0 1 2.374-.475c.851 0 1.637.159 2.357.475a5.61 5.61 0 0 1 1.899 1.293c.545.546.965 1.19 1.26 1.932.305.742.458 1.544.458 2.406 0 .862-.153 1.67-.458 2.423a5.838 5.838 0 0 1-1.26 1.948 5.8 5.8 0 0 1-1.899 1.309 5.965 5.965 0 0 1-2.357.458zm0-1.62c.622 0 1.184-.115 1.686-.344a3.755 3.755 0 0 0 1.293-.966c.371-.414.649-.894.835-1.44a5.286 5.286 0 0 0 .294-1.768c0-.622-.098-1.206-.294-1.751a3.96 3.96 0 0 0-.835-1.424 3.755 3.755 0 0 0-1.293-.966 4.017 4.017 0 0 0-1.686-.344c-.622 0-1.184.115-1.686.344a3.925 3.925 0 0 0-1.31.966c-.36.403-.638.878-.835 1.424a5.413 5.413 0 0 0-.278 1.751c0 .622.093 1.211.278 1.768.197.546.475 1.026.835 1.44.371.415.808.737 1.31.966a4.017 4.017 0 0 0 1.686.344zm9.359-3.519v4.894h-1.654v-8.676h1.539v1.441c.295-.48.677-.868 1.146-1.162a3.031 3.031 0 0 1 1.62-.442c.895 0 1.61.278 2.145.834.545.557.818 1.354.818 2.39v5.615h-1.653v-5.058c0-.742-.158-1.315-.475-1.719-.316-.404-.785-.605-1.408-.605-.381 0-.731.103-1.047.311-.317.196-.568.48-.753.851-.186.371-.278.813-.278 1.326zm11.378 5.058c-.84 0-1.577-.186-2.21-.557a3.927 3.927 0 0 1-1.457-1.604c-.349-.688-.523-1.484-.523-2.39 0-.862.18-1.626.54-2.292a4.09 4.09 0 0 1 1.473-1.571c.622-.393 1.331-.589 2.128-.589.655 0 1.239.125 1.751.376.524.24.966.584 1.326 1.031.371.437.639.955.802 1.555.164.59.208 1.239.131 1.948h-7.186v-1.096h5.435c-.033-.808-.257-1.435-.671-1.883-.404-.458-.944-.687-1.621-.687-.491 0-.922.131-1.293.393-.36.251-.644.616-.851 1.096-.197.47-.295 1.042-.295 1.719s.098 1.26.295 1.751c.196.481.48.852.851 1.114.371.261.819.392 1.342.392.622 0 1.135-.158 1.539-.474.415-.317.687-.759.818-1.326h1.637c-.207.96-.665 1.719-1.375 2.275-.698.546-1.56.819-2.586.819zm13.936-.164h-1.801v-10.132h-3.83v-1.621h9.461v1.621h-3.83v10.132zm7.104 0h-1.654v-8.676h1.654v8.676zm.36-10.689c0 .306-.115.567-.344.786-.218.207-.502.311-.851.311-.36 0-.655-.104-.884-.311a1.073 1.073 0 0 1-.327-.786c0-.327.109-.589.327-.786.229-.207.524-.311.884-.311.349 0 .633.104.851.311.229.197.344.459.344.786zm3.588 10.689h-1.653v-8.676h1.538v1.441a3.36 3.36 0 0 1 1.13-1.179c.458-.283.988-.425 1.588-.425.633 0 1.178.158 1.637.474.469.306.802.748.998 1.326a3.563 3.563 0 0 1 1.195-1.309c.491-.328 1.069-.491 1.735-.491.895 0 1.604.283 2.128.851.535.556.802 1.348.802 2.373v5.615h-1.653v-5.091c0-.731-.158-1.293-.475-1.686-.316-.404-.775-.605-1.375-.605-.371 0-.715.103-1.031.311a2.115 2.115 0 0 0-.737.834c-.185.36-.278.781-.278 1.261v4.976h-1.653v-5.091c0-.731-.158-1.293-.475-1.686-.305-.404-.764-.605-1.375-.605-.382 0-.731.103-1.047.311a2.108 2.108 0 0 0-.737.834c-.175.36-.262.781-.262 1.261v4.976zm16.877.164c-.84 0-1.576-.186-2.209-.557a3.92 3.92 0 0 1-1.457-1.604c-.349-.688-.524-1.484-.524-2.39 0-.862.18-1.626.54-2.292a4.09 4.09 0 0 1 1.473-1.571c.622-.393 1.332-.589 2.128-.589.655 0 1.239.125 1.752.376.524.24.965.584 1.326 1.031.371.437.638.955.802 1.555.163.59.207 1.239.131 1.948h-7.186v-1.096h5.434c-.033-.808-.256-1.435-.671-1.883-.404-.458-.944-.687-1.62-.687-.492 0-.923.131-1.294.393-.36.251-.643.616-.851 1.096-.196.47-.294 1.042-.294 1.719s.098 1.26.294 1.751c.197.481.48.852.851 1.114.371.261.819.392 1.343.392.622 0 1.135-.158 1.538-.474.415-.317.688-.759.819-1.326h1.637c-.208.96-.666 1.719-1.375 2.275-.699.546-1.561.819-2.587.819z"/><rect width="116.741" height="43.278" x="142.051" y="403.455" stroke="#D1D5DB" stroke-width=".909" rx="6.82"/></g><g filter="url(#d)"><rect width="81.65" height="44.188" x="267.247" y="403" fill="#fff" rx="7.275"/><path fill="#374151" d="M294.234 431.094h-3.716v-11.753h3.716c1.255 0 2.324.251 3.208.753a4.92 4.92 0 0 1 2.014 2.046c.458.873.687 1.883.687 3.028 0 1.135-.235 2.15-.704 3.045a5.283 5.283 0 0 1-2.046 2.112c-.884.512-1.937.769-3.159.769zm-1.915-10.198v8.643h1.833c.906 0 1.664-.175 2.275-.524a3.457 3.457 0 0 0 1.408-1.522c.316-.655.475-1.43.475-2.325 0-.884-.159-1.642-.475-2.275a3.28 3.28 0 0 0-1.408-1.473c-.611-.349-1.369-.524-2.275-.524h-1.833zm8.955 5.86c0-.873.159-1.648.475-2.324.328-.688.78-1.222 1.359-1.604.589-.382 1.282-.573 2.079-.573.633 0 1.184.147 1.653.442.48.283.873.698 1.178 1.244v-1.523h1.539v8.676h-1.539v-1.555a3.371 3.371 0 0 1-1.227 1.277 3.245 3.245 0 0 1-1.67.442c-.775 0-1.451-.191-2.03-.573a3.89 3.89 0 0 1-1.342-1.604c-.316-.688-.475-1.463-.475-2.325zm1.719 0c0 .971.229 1.719.688 2.243.458.523 1.047.785 1.768.785.48 0 .9-.12 1.26-.36.371-.251.66-.605.868-1.064.218-.458.327-1.004.327-1.637 0-.643-.109-1.189-.327-1.637-.219-.447-.513-.785-.884-1.014a2.242 2.242 0 0 0-1.244-.36c-.721 0-1.31.261-1.768.785-.459.524-.688 1.277-.688 2.259zm10.42 4.338h-1.654v-8.676h1.654v8.676zm.36-10.689c0 .306-.115.567-.344.786-.218.207-.502.311-.851.311-.36 0-.655-.104-.884-.311a1.073 1.073 0 0 1-.327-.786c0-.327.109-.589.327-.786.229-.207.524-.311.884-.311.349 0 .633.104.851.311.229.197.344.459.344.786zm3.604 10.689h-1.669v-11.753h1.669v11.753zm9.497-8.676-4.337 11.835h-1.801l1.244-3.274-3.421-8.561h1.784l2.521 6.613 2.341-6.613h1.669z"/><rect width="80.741" height="43.278" x="267.701" y="403.455" stroke="#D1D5DB" stroke-width=".909" rx="6.82"/></g><g filter="url(#e)"><rect width="106.65" height="44.188" x="356.897" y="403" fill="#fff" rx="7.275"/><path fill="#374151" d="m385.761 431.094-3.716-8.987v8.987h-1.653v-11.753h2.21l3.944 9.543 3.929-9.543h2.226v11.753h-1.669v-9.003l-3.733 9.003h-1.538zm12.984.164c-.611 0-1.179-.11-1.702-.328a4.166 4.166 0 0 1-1.343-.949 4.653 4.653 0 0 1-.9-1.441 4.986 4.986 0 0 1-.311-1.784c0-.644.104-1.238.311-1.784a4.45 4.45 0 0 1 .9-1.424c.382-.415.83-.731 1.343-.95a4.198 4.198 0 0 1 1.702-.343c.622 0 1.189.114 1.702.343.524.219.972.535 1.343.95.382.404.676.878.884 1.424.218.546.327 1.14.327 1.784 0 .644-.109 1.239-.327 1.784a4.434 4.434 0 0 1-.884 1.441c-.371.404-.819.72-1.343.949a4.308 4.308 0 0 1-1.702.328zm0-1.457c.48 0 .911-.12 1.293-.36.393-.251.699-.606.917-1.064.229-.459.344-.999.344-1.621 0-.633-.115-1.173-.344-1.62a2.393 2.393 0 0 0-2.21-1.408c-.469 0-.9.12-1.293.36-.382.24-.688.589-.917 1.048-.218.447-.327.987-.327 1.62 0 .622.109 1.162.327 1.621.229.458.535.813.917 1.064.393.24.824.36 1.293.36zm7.595-3.601v4.894h-1.654v-8.676h1.539v1.441c.295-.48.677-.868 1.146-1.162a3.031 3.031 0 0 1 1.62-.442c.895 0 1.61.278 2.145.834.545.557.818 1.354.818 2.39v5.615h-1.653v-5.058c0-.742-.158-1.315-.475-1.719-.316-.404-.786-.605-1.408-.605-.382 0-.731.103-1.047.311-.317.196-.568.48-.753.851-.186.371-.278.813-.278 1.326zm12.672 3.29v1.457c-.251.12-.497.201-.737.245a3.897 3.897 0 0 1-.736.066c-.535 0-1.01-.099-1.424-.295a2.14 2.14 0 0 1-.95-.917c-.229-.414-.344-.938-.344-1.571v-4.649h-1.915v-1.408h1.915v-2.57h1.654v2.57h2.619v1.408h-2.619v4.272c0 .601.131 1.021.393 1.261.272.24.627.36 1.063.36a3 3 0 0 0 .557-.049c.186-.044.36-.104.524-.18zm3.313-3.29v4.894h-1.654v-11.753h1.654v4.469a3.45 3.45 0 0 1 1.08-1.13c.448-.283.971-.425 1.571-.425.895 0 1.61.278 2.145.834.545.557.818 1.354.818 2.39v5.615h-1.653v-5.058c0-.742-.158-1.315-.475-1.719-.316-.404-.785-.605-1.407-.605-.382 0-.732.103-1.048.311-.316.196-.567.48-.753.851-.186.371-.278.813-.278 1.326zm9.479 4.894h-1.669v-11.753h1.669v11.753zm9.497-8.676-4.337 11.835h-1.801l1.244-3.274-3.421-8.561h1.784l2.521 6.613 2.341-6.613h1.669z"/><rect width="105.741" height="43.278" x="357.352" y="403.455" stroke="#D1D5DB" stroke-width=".909" rx="6.82"/></g><defs><filter id="a" width="31.088" height="31.088" x="232.843" y="270.586" color-interpolation-filters="sRGB" filterUnits="userSpaceOnUse"><feFlood flood-opacity="0" result="BackgroundImageFix"/><feColorMatrix in="SourceAlpha" result="hardAlpha" values="0 0 0 0 0 0 0 0 0 0 0 0 0 0 0 0 0 0 127 0"/><feOffset dy="1.413"/><feGaussianBlur stdDeviation="1.413"/><feColorMatrix values="0 0 0 0 0.0627451 0 0 0 0 0.0941176 0 0 0 0 0.156863 0 0 0 0.06 0"/><feBlend in2="BackgroundImageFix" result="effect1_dropShadow_531_96365"/><feBlend in="SourceGraphic" in2="effect1_dropShadow_531_96365" result="shape"/></filter><filter id="b" width="31.088" height="31.088" x="280.367" y="313.717" color-interpolation-filters="sRGB" filterUnits="userSpaceOnUse"><feFlood flood-opacity="0" result="BackgroundImageFix"/><feColorMatrix in="SourceAlpha" result="hardAlpha" values="0 0 0 0 0 0 0 0 0 0 0 0 0 0 0 0 0 0 127 0"/><feOffset dy="1.413"/><feGaussianBlur stdDeviation="1.413"/><feColorMatrix values="0 0 0 0 0.0627451 0 0 0 0 0.0941176 0 0 0 0 0.156863 0 0 0 0.06 0"/><feBlend in2="BackgroundImageFix" result="effect1_dropShadow_531_96365"/><feBlend in="SourceGraphic" in2="effect1_dropShadow_531_96365" result="shape"/></filter><filter id="c" width="121.288" height="47.825" x="139.778" y="402.091" color-interpolation-filters="sRGB" filterUnits="userSpaceOnUse"><feFlood flood-opacity="0" result="BackgroundImageFix"/><feColorMatrix in="SourceAlpha" result="hardAlpha" values="0 0 0 0 0 0 0 0 0 0 0 0 0 0 0 0 0 0 127 0"/><feOffset dy=".909"/><feGaussianBlur stdDeviation=".909"/><feColorMatrix values="0 0 0 0 0.0627451 0 0 0 0 0.0941176 0 0 0 0 0.156863 0 0 0 0.05 0"/><feBlend in2="BackgroundImageFix" result="effect1_dropShadow_531_96365"/><feBlend in="SourceGraphic" in2="effect1_dropShadow_531_96365" result="shape"/></filter><filter id="d" width="85.288" height="47.825" x="265.428" y="402.091" color-interpolation-filters="sRGB" filterUnits="userSpaceOnUse"><feFlood flood-opacity="0" result="BackgroundImageFix"/><feColorMatrix in="SourceAlpha" result="hardAlpha" values="0 0 0 0 0 0 0 0 0 0 0 0 0 0 0 0 0 0 127 0"/><feOffset dy=".909"/><feGaussianBlur stdDeviation=".909"/><feColorMatrix values="0 0 0 0 0.0627451 0 0 0 0 0.0941176 0 0 0 0 0.156863 0 0 0 0.05 0"/><feBlend in2="BackgroundImageFix" result="effect1_dropShadow_531_96365"/><feBlend in="SourceGraphic" in2="effect1_dropShadow_531_96365" result="shape"/></filter><filter id="e" width="110.288" height="47.825" x="355.078" y="402.091" color-interpolation-filters="sRGB" filterUnits="userSpaceOnUse"><feFlood flood-opacity="0" result="BackgroundImageFix"/><feColorMatrix in="SourceAlpha" result="hardAlpha" values="0 0 0 0 0 0 0 0 0 0 0 0 0 0 0 0 0 0 127 0"/><feOffset dy=".909"/><feGaussianBlur stdDeviation=".909"/><feColorMatrix values="0 0 0 0 0.0627451 0 0 0 0 0.0941176 0 0 0 0 0.156863 0 0 0 0.05 0"/><feBlend in2="BackgroundImageFix" result="effect1_dropShadow_531_96365"/><feBlend in="SourceGraphic" in2="effect1_dropShadow_531_96365" result="shape"/></filter></defs></svg>