<svg xmlns="http://www.w3.org/2000/svg" width="315" height="122" fill="none"><path fill="#F9FAFB" fill-rule="evenodd" d="M50 43.193c-9.836 0-17.81 7.973-17.81 17.81 0 9.836 7.974 17.81 17.81 17.81a17.73 17.73 0 0 0 10.956-3.77 39.65 39.65 0 0 1 2.228-2.067 17.744 17.744 0 0 0 4.625-11.973c0-9.837-7.973-17.81-17.81-17.81zM50 11c27.614 0 50 22.386 50 50.003 0 .866-.022 1.728-.066 2.583H88.435c-1.573 0-3.126.098-4.653.281.08-.944.123-1.9.123-2.864 0-18.726-15.18-33.907-33.905-33.907S16.096 42.277 16.096 61.003 31.275 94.909 50 94.909c.11 0 .22-.003.331-.004a38.66 38.66 0 0 0-.74 7.527V111C22.167 110.781 0 88.482 0 61.003 0 33.386 22.386 11 50 11z" clip-rule="evenodd"/><path fill="#8387D1" fill-rule="evenodd" d="M88.435 79.682h7.955c-5.47 13.573-16.72 24.192-30.703 28.809v-6.06c0-5.935 2.305-11.358 6.063-15.42a33.72 33.72 0 0 0 2.562-2.38 22.611 22.611 0 0 1 14.123-4.949z" clip-rule="evenodd"/><path fill="#fff" d="M128.922 99h-12.1V24.6h12.1v45.7l19.2-20.7h15.3l-18.8 19.6 18.4 29.8h-14l-12.9-20.8-7.2 7.5V99zm59.508 0-19.6-49.4h13l8.6 22.7c2.1 5.9 3.8 11 4.4 13.7.7-3.1 2.5-8.3 4.6-13.7l9-22.7h12.6L200.43 99h-12zm49.713-59.3c-4.2 0-7.5-3.3-7.5-7.4 0-4.1 3.3-7.3 7.5-7.3 4 0 7.3 3.2 7.3 7.3s-3.3 7.4-7.3 7.4zm-6.1 59.3V49.6h12.2V99h-12.2zm41.005 0h-12.2V49.6h11.3l1 6.4c3.1-5 9.1-7.9 15.8-7.9 12.4 0 18.8 7.7 18.8 20.5V99h-12.2V71.5c0-8.3-4.1-12.3-10.4-12.3-7.5 0-12.1 5.2-12.1 13.2V99z"/></svg>