<svg xmlns="http://www.w3.org/2000/svg" width="516" height="477" fill="none"><rect width="516" height="477" fill="#fff" rx="30"/><g clip-path="url(#a)"><rect width="449.196" height="327.335" x="33.374" y="33" fill="#fff" rx="8.895"/><path fill="#000" d="M58.735 76.348h-2.348V61.02h5.721c1.765 0 3.146.42 4.142 1.26.996.825 1.494 2 1.494 3.522 0 1.096-.327 2.042-.982 2.84-.655.796-1.565 1.33-2.732 1.6l4.162 6.106h-2.817l-3.822-5.764h-2.818v5.764zm0-13.364v5.636h3.224c1.081 0 1.921-.235 2.519-.705.598-.483.897-1.188.897-2.113s-.3-1.622-.897-2.092c-.598-.484-1.438-.726-2.52-.726h-3.223zm13.282 13.364h-2.156V65.034h2.156v11.314zm.47-13.94c0 .398-.15.74-.448 1.024-.285.27-.655.406-1.11.406-.47 0-.854-.135-1.153-.406a1.397 1.397 0 0 1-.427-1.024c0-.427.142-.769.427-1.025.299-.27.683-.406 1.153-.406.455 0 .825.136 1.11.406.299.256.448.598.448 1.025zM83.55 72.975c0 1.11-.413 1.985-1.238 2.626-.826.64-1.993.96-3.501.96-1.48 0-2.655-.348-3.523-1.046-.854-.697-1.337-1.65-1.451-2.86h2.07c.029.711.306 1.273.833 1.686.54.399 1.245.598 2.113.598.755 0 1.36-.135 1.815-.406.47-.27.704-.669.704-1.195 0-.47-.156-.826-.47-1.068-.298-.242-.803-.426-1.515-.555l-1.836-.341c-1.039-.2-1.843-.562-2.412-1.089-.57-.54-.854-1.238-.854-2.092 0-.669.178-1.252.534-1.75.37-.513.882-.911 1.537-1.196.654-.285 1.416-.427 2.284-.427.91 0 1.708.157 2.39.47a3.928 3.928 0 0 1 1.645 1.302c.412.555.647 1.224.704 2.007h-2.07c-.072-.67-.342-1.196-.812-1.58-.47-.384-1.082-.577-1.836-.577-.683 0-1.238.143-1.665.427-.413.27-.619.648-.619 1.132 0 .455.15.804.448 1.046.313.228.811.413 1.495.555l1.921.363c1.124.2 1.957.548 2.498 1.046.54.498.81 1.153.81 1.964zm4.083 3.373h-2.156V61.02h2.156v9.073l4.846-5.06h2.54l-5.23 5.487 5.722 5.828h-2.776l-5.102-5.358v5.358zm21.967-3.373c0 1.11-.413 1.985-1.238 2.626-.825.64-1.992.96-3.501.96-1.48 0-2.654-.348-3.522-1.046-.854-.697-1.338-1.65-1.452-2.86h2.071c.028.711.306 1.273.832 1.686.541.399 1.246.598 2.114.598.754 0 1.359-.135 1.814-.406.47-.27.705-.669.705-1.195 0-.47-.157-.826-.47-1.068-.299-.242-.804-.426-1.516-.555l-1.836-.341c-1.038-.2-1.843-.562-2.412-1.089-.569-.54-.854-1.238-.854-2.092 0-.669.178-1.252.534-1.75.37-.513.882-.911 1.537-1.196.655-.285 1.416-.427 2.284-.427.911 0 1.708.157 2.391.47a3.932 3.932 0 0 1 1.644 1.302c.413.555.647 1.224.704 2.007h-2.07c-.071-.67-.342-1.196-.812-1.58-.469-.384-1.081-.577-1.835-.577-.684 0-1.239.143-1.666.427-.412.27-.619.648-.619 1.132 0 .455.15.804.449 1.046.313.228.811.413 1.494.555l1.921.363c1.125.2 1.957.548 2.498 1.046.541.498.811 1.153.811 1.964zm8.994-1.28v-6.661h2.156v11.314h-2.007v-1.772c-.285.57-.74 1.046-1.366 1.43a4.038 4.038 0 0 1-2.092.555c-.755 0-1.431-.15-2.028-.448-.584-.299-1.039-.761-1.367-1.388-.313-.64-.469-1.444-.469-2.412v-7.28h2.156v6.853c0 .982.22 1.694.662 2.135.441.427 1.017.64 1.729.64.484 0 .925-.12 1.323-.362.399-.257.712-.605.94-1.047.242-.455.363-.974.363-1.558zm6.879 4.653h-2.156V65.034h2.007v1.878a4.362 4.362 0 0 1 1.473-1.537c.598-.37 1.288-.555 2.071-.555.825 0 1.537.206 2.134.62.612.398 1.046.974 1.303 1.728.398-.726.918-1.295 1.558-1.708.64-.426 1.395-.64 2.263-.64 1.167 0 2.092.37 2.775 1.11.697.726 1.046 1.758 1.046 3.096v7.322h-2.156v-6.64c0-.953-.206-1.686-.619-2.198-.413-.527-1.011-.79-1.793-.79a2.4 2.4 0 0 0-1.345.406 2.762 2.762 0 0 0-.961 1.088c-.242.47-.363 1.018-.363 1.644v6.49h-2.156v-6.64c0-.953-.206-1.686-.619-2.198-.399-.527-.996-.79-1.793-.79a2.44 2.44 0 0 0-1.367.406 2.767 2.767 0 0 0-.96 1.088c-.228.47-.342 1.018-.342 1.644v6.49zm19.087 0h-2.157V65.034h2.007v1.878a4.362 4.362 0 0 1 1.473-1.537c.598-.37 1.288-.555 2.071-.555.825 0 1.537.206 2.135.62.612.398 1.046.974 1.302 1.728.398-.726.918-1.295 1.558-1.708.641-.426 1.395-.64 2.263-.64 1.167 0 2.092.37 2.775 1.11.698.726 1.047 1.758 1.047 3.096v7.322h-2.157v-6.64c0-.953-.206-1.686-.619-2.198-.412-.527-1.01-.79-1.793-.79-.484 0-.932.135-1.345.406a2.77 2.77 0 0 0-.961 1.088c-.241.47-.362 1.018-.362 1.644v6.49h-2.157v-6.64c0-.953-.206-1.686-.619-2.198-.398-.527-.996-.79-1.793-.79-.498 0-.953.135-1.366.406a2.762 2.762 0 0 0-.961 1.088c-.228.47-.341 1.018-.341 1.644v6.49zm23.783 0v-1.75a3.747 3.747 0 0 1-1.452 1.451c-.612.342-1.338.512-2.178.512-1.167 0-2.106-.306-2.818-.918-.711-.626-1.067-1.458-1.067-2.497 0-1.11.434-1.95 1.302-2.52.883-.569 2.164-.853 3.843-.853a15.035 15.035 0 0 1 2.113.128v-.833c0-.797-.206-1.416-.619-1.857-.412-.455-.996-.683-1.75-.683-.783 0-1.409.228-1.879.683-.455.441-.697 1.053-.726 1.836h-1.964c.029-.854.235-1.594.619-2.22a4 4 0 0 1 1.601-1.473c.684-.356 1.466-.534 2.349-.534 1.394 0 2.476.377 3.245 1.132.782.74 1.174 1.786 1.174 3.138v7.258h-1.793zm-5.466-3.266c0 .583.207 1.053.62 1.409.412.355.96.533 1.643.533.911 0 1.63-.256 2.156-.768.527-.527.79-1.224.79-2.092v-.918a19.206 19.206 0 0 0-1.088-.086 9.905 9.905 0 0 0-.897-.042c-1.082 0-1.893.163-2.434.49-.526.314-.79.805-.79 1.474zm11.871-2.52v5.786h-2.156V65.034h2.006v2.39a4.454 4.454 0 0 1 1.772-1.857 5.12 5.12 0 0 1 2.583-.683v2.242c-.811-.043-1.537.05-2.177.277a3.056 3.056 0 0 0-1.495 1.132c-.355.512-.533 1.188-.533 2.028zm15.086-5.528-5.657 15.434h-2.348l1.622-4.27-4.462-11.164h2.327l3.288 8.624 3.053-8.624h2.177z"/><rect width="128.977" height="34.9" x="239.292" y="54.793" fill="#fff" rx="4.892"/><path fill="#111827" d="M255.636 77.243h-5.106v-8.941h.934v8.107h4.172v.834zm.622-3.288c0-.672.116-1.262.348-1.768.241-.515.577-.913 1.009-1.195.44-.291.959-.436 1.557-.436.506 0 .954.133 1.344.398.399.266.71.635.934 1.109V70.68h.822v6.563h-.809V75.86a2.727 2.727 0 0 1-.959 1.108 2.39 2.39 0 0 1-1.357.398c-.59 0-1.1-.14-1.532-.423a2.897 2.897 0 0 1-1.009-1.208c-.232-.515-.348-1.108-.348-1.78zm.884 0c0 .839.195 1.49.585 1.956.39.464.905.697 1.544.697.432 0 .805-.108 1.121-.324.324-.216.573-.523.747-.922.183-.406.274-.884.274-1.432 0-.548-.095-1.017-.286-1.407a2.082 2.082 0 0 0-.76-.896 1.948 1.948 0 0 0-1.096-.312c-.639 0-1.154.233-1.544.698-.39.465-.585 1.112-.585 1.942zm11.865 1.457c0 .606-.228 1.084-.685 1.432-.456.35-1.091.523-1.905.523-.814 0-1.461-.195-1.943-.585-.473-.39-.743-.921-.809-1.594h.834c.025.465.212.834.561 1.108.348.274.801.411 1.357.411.54 0 .959-.1 1.258-.298.307-.2.46-.486.46-.86 0-.324-.103-.568-.311-.734-.207-.175-.56-.312-1.058-.411l-.947-.187c-.622-.116-1.096-.324-1.419-.623-.324-.307-.486-.697-.486-1.17 0-.366.1-.69.299-.972.207-.282.49-.502.847-.66a3.144 3.144 0 0 1 1.257-.236c.507 0 .947.087 1.32.261.382.166.685.407.909.723.225.315.349.693.374 1.133h-.822c-.041-.457-.22-.81-.535-1.059-.316-.257-.731-.386-1.246-.386-.465 0-.842.1-1.133.299a.952.952 0 0 0-.423.822c0 .324.103.573.311.747.216.174.569.307 1.059.399l.983.186c.648.125 1.125.328 1.432.61.308.283.461.656.461 1.121zm4.841.997v.772a1.94 1.94 0 0 1-.473.15 3 3 0 0 1-.474.036 2.31 2.31 0 0 1-.971-.199 1.558 1.558 0 0 1-.697-.635c-.166-.29-.249-.672-.249-1.146v-3.972h-1.545v-.735h1.545v-1.942h.871v1.942h2.055v.735h-2.055V75.2c0 .514.112.871.337 1.07.232.2.527.3.884.3a1.845 1.845 0 0 0 .772-.162zm6.423.946c-.564 0-1.066-.12-1.506-.361a2.88 2.88 0 0 1-1.047-.996 2.7 2.7 0 0 1-.373-1.395c0-.365.046-.69.137-.971.091-.283.22-.553.386-.81.174-.257.369-.523.585-.797l2.541-3.2h.983l-2.528 3.2c.175-.066.345-.112.511-.137a2.83 2.83 0 0 1 1.893.299c.415.224.743.544.984.959.249.407.373.884.373 1.432 0 .523-.128.996-.386 1.42a2.632 2.632 0 0 1-1.046.996c-.44.24-.942.361-1.507.361zm.013-.722c.39 0 .739-.087 1.046-.262.307-.174.548-.415.722-.722a2.13 2.13 0 0 0 .262-1.046c0-.423-.088-.789-.262-1.096a1.862 1.862 0 0 0-.722-.735 2.082 2.082 0 0 0-1.046-.261c-.581 0-1.067.178-1.457.535-.39.357-.586.868-.586 1.532 0 .398.088.755.262 1.07.183.308.428.549.735.723a2.08 2.08 0 0 0 1.046.262zm7.807.61h-.872V70.68h.809v1.233c.225-.423.519-.755.885-.996.373-.24.792-.361 1.257-.361.515 0 .951.133 1.308.398.365.266.614.64.747 1.12a2.51 2.51 0 0 1 .897-1.107 2.357 2.357 0 0 1 1.369-.411c.681 0 1.217.216 1.607.647.398.424.598 1.017.598 1.781v4.259h-.86V73.27c0-.63-.141-1.112-.423-1.444-.274-.34-.677-.51-1.208-.51a1.6 1.6 0 0 0-.909.273c-.274.175-.494.42-.66.735a2.31 2.31 0 0 0-.237 1.071v3.848h-.871V73.27c0-.63-.137-1.112-.411-1.444-.274-.34-.681-.51-1.221-.51a1.66 1.66 0 0 0-.921.273c-.274.175-.49.42-.648.735a2.31 2.31 0 0 0-.236 1.071v3.848zm13.065.124a3.09 3.09 0 0 1-1.245-.249 2.916 2.916 0 0 1-.996-.71 3.456 3.456 0 0 1-.648-1.083 4.029 4.029 0 0 1-.224-1.37c0-.49.075-.942.224-1.357.158-.415.374-.772.648-1.071.282-.307.614-.544.996-.71a3.09 3.09 0 0 1 1.245-.249c.457 0 .876.083 1.258.25.382.165.71.402.984.709.282.299.498.656.647 1.071.158.415.237.868.237 1.357 0 .499-.079.955-.237 1.37a3.162 3.162 0 0 1-.647 1.084 2.796 2.796 0 0 1-.984.71 3.122 3.122 0 0 1-1.258.248zm0-.747c.432 0 .814-.108 1.146-.324a2.26 2.26 0 0 0 .797-.934c.199-.398.299-.867.299-1.407s-.1-1.004-.299-1.394a2.189 2.189 0 0 0-.797-.91 2.056 2.056 0 0 0-1.146-.323c-.423 0-.805.108-1.145.323a2.306 2.306 0 0 0-.797.91c-.191.39-.287.855-.287 1.394 0 .54.096 1.009.287 1.407.199.399.465.71.797.934.34.216.722.324 1.145.324zm5.407-3.2v3.823h-.871V70.68h.809v1.233c.216-.398.511-.722.884-.971a2.24 2.24 0 0 1 1.283-.386c.681 0 1.224.211 1.631.635.415.423.623 1.02.623 1.793v4.259h-.872v-3.96c0-.631-.141-1.117-.423-1.457-.274-.34-.681-.51-1.221-.51-.34 0-.651.09-.934.273a1.86 1.86 0 0 0-.672.735c-.158.316-.237.68-.237 1.096zm9.557 2.989v.772a1.94 1.94 0 0 1-.473.15 3 3 0 0 1-.474.036 2.31 2.31 0 0 1-.971-.199 1.553 1.553 0 0 1-.697-.635c-.166-.29-.249-.672-.249-1.146v-3.972h-1.545v-.735h1.545v-1.942h.871v1.942h2.055v.735h-2.055V75.2c0 .514.112.871.337 1.07.232.2.527.3.884.3a1.845 1.845 0 0 0 .772-.162zm2.252-2.99v3.824h-.872v-8.941h.872v3.586c.199-.39.481-.71.847-.959a2.177 2.177 0 0 1 1.257-.373c.681 0 1.225.211 1.632.635.415.423.622 1.02.622 1.793v4.259h-.871v-3.96c0-.631-.142-1.117-.424-1.457-.274-.34-.681-.51-1.22-.51-.341 0-.652.09-.934.273-.282.175-.507.42-.673.735a2.43 2.43 0 0 0-.236 1.096zm11.1 1.993c0 .606-.228 1.084-.685 1.432-.456.35-1.092.523-1.905.523-.814 0-1.461-.195-1.943-.585-.473-.39-.743-.921-.809-1.594h.834c.025.465.212.834.56 1.108.349.274.802.411 1.358.411.539 0 .959-.1 1.258-.298.307-.2.46-.486.46-.86 0-.324-.103-.568-.311-.734-.208-.175-.56-.312-1.058-.411l-.947-.187c-.623-.116-1.096-.324-1.42-.623-.323-.307-.485-.697-.485-1.17 0-.366.099-.69.299-.972a2.06 2.06 0 0 1 .846-.66 3.152 3.152 0 0 1 1.258-.236c.507 0 .947.087 1.32.261.382.166.685.407.909.723.224.315.349.693.374 1.133h-.822c-.041-.457-.22-.81-.535-1.059-.316-.257-.731-.386-1.246-.386-.465 0-.842.1-1.133.299a.952.952 0 0 0-.423.822c0 .324.103.573.311.747.216.174.569.307 1.058.399l.984.186c.648.125 1.125.328 1.432.61.307.283.461.656.461 1.121z"/><path stroke="#6B7280" stroke-linecap="round" stroke-linejoin="round" stroke-width="1.005" d="m352.481 71.13-3.336 3.337-3.335-3.336"/><rect width="128.977" height="34.9" x="239.292" y="54.793" stroke="#E5E7EB" stroke-width=".889" rx="4.892"/><rect width="38.248" height="34.69" x="376.275" y="54.793" fill="#fff" rx="4.892"/><path stroke="#6B7280" stroke-linecap="round" stroke-linejoin="round" stroke-width="1.485" d="M389.173 73.472v.779a2.335 2.335 0 0 0 2.335 2.334h7.783a2.335 2.335 0 0 0 2.335-2.334v-.779m-3.113-3.113-3.114 3.113m0 0-3.113-3.113m3.113 3.113v-9.34"/><rect width="38.248" height="34.69" x="376.275" y="54.793" stroke="#E5E7EB" stroke-width=".889" rx="4.892"/><rect width="38.248" height="34.69" x="422.529" y="54.793" fill="#fff" rx="4.892"/><path stroke="#6B7280" stroke-linecap="round" stroke-linejoin="round" stroke-width="1.485" d="M441.653 73.126V70.36m0-2.767h-.007m-6.219 2.767a6.226 6.226 0 1 1 12.453 0 6.227 6.227 0 0 1-12.453 0z"/><rect width="38.248" height="34.69" x="422.529" y="54.793" stroke="#E5E7EB" stroke-width=".889" rx="4.892"/><path fill="#9CA3AF" d="M115.195 325.035v5.977c0 .681-.124 1.258-.373 1.731a2.454 2.454 0 0 1-1.034 1.059c-.448.24-.98.361-1.594.361-.581 0-1.092-.116-1.532-.349a2.583 2.583 0 0 1-1.021-.984c-.249-.423-.39-.921-.423-1.494h.934c.025.423.124.785.299 1.083.174.299.411.528.709.685.308.15.652.225 1.034.225.415 0 .776-.079 1.083-.237.308-.166.548-.415.723-.747.174-.332.261-.752.261-1.258v-6.052h.934zm1.41 5.653c0-.672.116-1.261.349-1.768.24-.515.577-.913 1.008-1.195.44-.291.959-.436 1.557-.436.506 0 .955.133 1.345.398.398.266.71.635.934 1.109v-1.383h.822v6.563h-.81v-1.382a2.722 2.722 0 0 1-.959 1.108 2.388 2.388 0 0 1-1.357.399c-.59 0-1.1-.142-1.532-.424a2.89 2.89 0 0 1-1.008-1.208c-.233-.514-.349-1.108-.349-1.781zm.884 0c0 .839.195 1.491.585 1.956.39.465.905.697 1.544.697.432 0 .806-.108 1.121-.324a2.07 2.07 0 0 0 .747-.921c.183-.407.274-.884.274-1.432 0-.548-.095-1.017-.286-1.408a2.077 2.077 0 0 0-.76-.896 1.942 1.942 0 0 0-1.096-.312c-.639 0-1.154.233-1.544.698-.39.465-.585 1.112-.585 1.942zm7.831-.535v3.823h-.872v-6.563h.809v1.233a2.69 2.69 0 0 1 .885-.971 2.243 2.243 0 0 1 1.282-.386c.681 0 1.225.212 1.632.635.415.423.622 1.021.622 1.793v4.259h-.871v-3.96c0-.631-.142-1.117-.424-1.457-.274-.34-.681-.511-1.22-.511-.341 0-.652.092-.934.274-.283.175-.507.42-.673.735a2.432 2.432 0 0 0-.236 1.096z"/><path fill="#111827" d="M168.25 333.976h-1.37v-8.941h5.43v1.195h-4.06v2.914h3.462v1.196h-3.462v3.636zm7.837.125c-.639 0-1.2-.142-1.681-.424a2.975 2.975 0 0 1-1.109-1.22c-.265-.523-.398-1.129-.398-1.818 0-.656.137-1.237.411-1.744a3.102 3.102 0 0 1 1.121-1.195 2.963 2.963 0 0 1 1.618-.449c.499 0 .943.096 1.333.287.398.183.735.444 1.009.784.282.333.485.727.61 1.183.124.449.157.943.099 1.482h-5.466v-.834h4.134c-.025-.614-.195-1.092-.511-1.432-.307-.349-.718-.523-1.233-.523-.373 0-.701.1-.983.299-.274.191-.49.469-.648.834-.149.357-.224.793-.224 1.308 0 .514.075.959.224 1.332.15.365.365.648.648.847.282.199.622.299 1.021.299.473 0 .863-.121 1.17-.361.316-.241.523-.577.623-1.009h1.245c-.157.731-.506 1.308-1.046 1.731-.531.415-1.187.623-1.967.623zm10.652-3.425c0 .656-.121 1.245-.361 1.768a2.953 2.953 0 0 1-1.021 1.221c-.432.29-.947.436-1.545.436-.465 0-.888-.112-1.27-.337a2.69 2.69 0 0 1-.934-.971v1.183h-1.17v-8.941h1.257v3.474c.233-.407.532-.718.897-.934a2.351 2.351 0 0 1 1.22-.324c.598 0 1.113.146 1.545.436.431.291.767.698 1.008 1.221.249.514.374 1.104.374 1.768zm-1.308 0c0-.747-.178-1.32-.535-1.718a1.692 1.692 0 0 0-1.333-.598c-.348 0-.664.091-.946.274a1.808 1.808 0 0 0-.673.772c-.166.34-.249.755-.249 1.245 0 .482.079.897.237 1.245.166.349.39.619.672.81.283.183.602.274.959.274.54 0 .984-.199 1.333-.598.357-.398.535-.967.535-1.706z"/><path fill="#9CA3AF" d="m227.955 333.976-3.238-7.584v7.584h-.872v-8.941h1.208l3.313 7.795 3.337-7.795h1.196v8.941h-.859v-7.584l-3.263 7.584h-.822zm6.409-3.288c0-.672.116-1.261.349-1.768.241-.515.577-.913 1.009-1.195.44-.291.958-.436 1.556-.436.507 0 .955.133 1.345.398.399.266.71.635.934 1.109v-1.383h.822v6.563h-.81v-1.382a2.727 2.727 0 0 1-.958 1.108 2.39 2.39 0 0 1-1.358.399c-.589 0-1.1-.142-1.531-.424a2.892 2.892 0 0 1-1.009-1.208c-.233-.514-.349-1.108-.349-1.781zm.884 0c0 .839.195 1.491.586 1.956.39.465.905.697 1.544.697.431 0 .805-.108 1.121-.324.323-.216.572-.523.747-.921.182-.407.274-.884.274-1.432 0-.548-.096-1.017-.287-1.408a2.075 2.075 0 0 0-.759-.896 1.947 1.947 0 0 0-1.096-.312c-.639 0-1.154.233-1.544.698-.391.465-.586 1.112-.586 1.942zm7.831-.224v3.512h-.872v-6.563h.81v1.495a2.803 2.803 0 0 1 1.021-1.158 2.664 2.664 0 0 1 1.482-.436v.909a2.676 2.676 0 0 0-1.246.236 2.073 2.073 0 0 0-.871.772c-.216.341-.324.752-.324 1.233zm38.865.274h4.321l.262.76h-4.957l.374-.76zm5.131 3.238-3.014-7.945-3.039 7.945h-.921l3.474-8.941h1.021l3.462 8.941h-.983zm8.273-3.288c0 .673-.12 1.267-.361 1.781a2.815 2.815 0 0 1-.996 1.208c-.424.282-.93.424-1.52.424-.489 0-.934-.129-1.332-.386a2.598 2.598 0 0 1-.934-1.084v3.748h-.872v-8.966h.81v1.42c.224-.49.544-.868.959-1.133a2.432 2.432 0 0 1 1.369-.411c.582 0 1.088.145 1.52.436.431.282.763.68.996 1.195.241.507.361 1.096.361 1.768zm-.884 0c0-.83-.199-1.477-.598-1.942-.39-.465-.905-.698-1.544-.698-.398 0-.76.104-1.083.312a2.15 2.15 0 0 0-.772.896c-.183.391-.274.868-.274 1.432 0 .54.091 1.009.274 1.408.182.398.435.705.759.921a1.93 1.93 0 0 0 1.096.324c.639 0 1.154-.232 1.544-.697.399-.465.598-1.117.598-1.956zm3.159-.224v3.512h-.871v-6.563h.809v1.495a2.803 2.803 0 0 1 1.021-1.158 2.664 2.664 0 0 1 1.482-.436v.909a2.669 2.669 0 0 0-1.245.236 2.07 2.07 0 0 0-.872.772c-.216.341-.324.752-.324 1.233zm44.188 3.512-3.238-7.584v7.584h-.872v-8.941h1.208l3.312 7.795 3.338-7.795h1.195v8.941h-.859v-7.584l-3.263 7.584h-.821zm6.409-3.288c0-.672.116-1.261.348-1.768.241-.515.577-.913 1.009-1.195.44-.291.959-.436 1.557-.436.506 0 .954.133 1.345.398.398.266.709.635.934 1.109v-1.383h.822v6.563h-.81v-1.382a2.722 2.722 0 0 1-.959 1.108 2.388 2.388 0 0 1-1.357.399c-.59 0-1.1-.142-1.532-.424a2.892 2.892 0 0 1-1.009-1.208c-.232-.514-.348-1.108-.348-1.781zm.884 0c0 .839.195 1.491.585 1.956.39.465.905.697 1.544.697.432 0 .806-.108 1.121-.324a2.07 2.07 0 0 0 .747-.921c.183-.407.274-.884.274-1.432 0-.548-.095-1.017-.286-1.408a2.077 2.077 0 0 0-.76-.896 1.945 1.945 0 0 0-1.096-.312c-.639 0-1.154.233-1.544.698-.39.465-.585 1.112-.585 1.942zm12.015-3.275-3.363 8.966h-.934l.959-2.49-2.602-6.476h.934l2.117 5.43 2.005-5.43h.884zm38.715-2.378v5.977c0 .681-.124 1.258-.373 1.731a2.449 2.449 0 0 1-1.034 1.059c-.448.24-.979.361-1.594.361-.581 0-1.091-.116-1.531-.349a2.58 2.58 0 0 1-1.022-.984c-.249-.423-.39-.921-.423-1.494h.934c.025.423.124.785.299 1.083.174.299.411.528.71.685.307.15.651.225 1.033.225.415 0 .776-.079 1.084-.237.307-.166.548-.415.722-.747.174-.332.261-.752.261-1.258v-6.052h.934zm6.092 6.301v-3.923h.86v6.563h-.81v-1.183a2.164 2.164 0 0 1-.809.946 2.315 2.315 0 0 1-1.283.362c-.44 0-.83-.083-1.171-.249a1.8 1.8 0 0 1-.772-.797c-.182-.366-.274-.822-.274-1.37v-4.272h.872v4.085c0 .664.15 1.141.448 1.432.299.282.677.423 1.134.423.348 0 .655-.087.921-.261.274-.174.49-.415.648-.722.157-.308.236-.652.236-1.034zm3.619-1.183v3.823h-.871v-6.563h.809v1.233c.216-.398.511-.722.884-.971.382-.257.81-.386 1.283-.386.681 0 1.224.212 1.631.635.415.423.623 1.021.623 1.793v4.259h-.872v-3.96c0-.631-.141-1.117-.423-1.457-.274-.34-.681-.511-1.221-.511-.34 0-.651.092-.934.274-.282.175-.506.42-.672.735a2.419 2.419 0 0 0-.237 1.096zM57.462 115.16h-.86v-7.671h-1.656v-.747h2.516v8.418zm1.701-4.197c0-1.394.258-2.465.773-3.213.514-.755 1.253-1.133 2.216-1.133.955 0 1.69.378 2.204 1.133.523.748.785 1.819.785 3.213 0 1.395-.258 2.466-.772 3.213-.507.739-1.246 1.108-2.217 1.108-.971 0-1.714-.369-2.229-1.108-.506-.747-.76-1.818-.76-3.213zm.897 0c0 1.154.174 2.034.523 2.64.357.606.88.909 1.57.909.68 0 1.199-.299 1.556-.896.357-.598.535-1.482.535-2.653 0-1.179-.178-2.067-.535-2.665-.357-.606-.876-.909-1.557-.909-.68 0-1.2.303-1.556.909-.357.606-.536 1.495-.536 2.665zm7.534 4.197h-.871v-8.941h.871v5.429l3.163-3.051h1.034l-3.312 3.213 3.586 3.35h-1.133l-3.338-3.151v3.151z"/><path stroke="#F3F4F6" stroke-width=".889" d="M90.302 109.928H446.1"/><path fill="#9CA3AF" d="M61.372 152.856c0 .481-.129.905-.386 1.27a2.44 2.44 0 0 1-1.034.847c-.44.199-.95.299-1.532.299-.58 0-1.096-.1-1.544-.299a2.44 2.44 0 0 1-1.033-.847 2.2 2.2 0 0 1-.374-1.27c0-.548.166-.997.498-1.345a2.701 2.701 0 0 1 1.208-.735 2.298 2.298 0 0 1-.971-.722 1.875 1.875 0 0 1-.386-1.183c0-.449.112-.839.336-1.171.232-.34.544-.606.934-.797a3.043 3.043 0 0 1 1.332-.286c.49 0 .93.095 1.32.286.39.191.698.457.922.797.232.332.349.722.349 1.171 0 .456-.133.851-.399 1.183a2.227 2.227 0 0 1-.946.722c.473.141.876.386 1.208.735.332.348.498.797.498 1.345zm-4.658-3.96c0 .489.158.871.474 1.145.323.274.734.411 1.232.411s.905-.137 1.22-.411c.325-.274.486-.656.486-1.145 0-.49-.161-.872-.485-1.146-.316-.282-.722-.423-1.22-.423-.499 0-.91.141-1.233.423-.316.274-.474.656-.474 1.146zm-.348 3.947c0 .357.087.664.261.922.174.257.415.456.722.597.316.133.673.2 1.071.2.399 0 .752-.067 1.059-.2.307-.141.548-.34.722-.597.183-.258.274-.565.274-.922 0-.365-.091-.672-.274-.921a1.587 1.587 0 0 0-.722-.561 2.643 2.643 0 0 0-1.059-.199c-.398 0-.755.066-1.07.199a1.587 1.587 0 0 0-.723.561c-.174.249-.261.556-.261.921zm7.556 2.316h-.872v-8.941h.872v5.43l3.163-3.051h1.033l-3.312 3.213 3.586 3.349H67.26l-3.337-3.15v3.15z"/><path stroke="#F3F4F6" stroke-width=".889" d="M90.302 149.927H446.1"/><path fill="#9CA3AF" d="M58.11 195.271c-.566 0-1.068-.12-1.508-.361a2.871 2.871 0 0 1-1.046-.996 2.705 2.705 0 0 1-.373-1.395c0-.365.045-.689.137-.971.09-.283.22-.553.386-.81.174-.257.37-.523.585-.797l2.54-3.2h.984l-2.528 3.2c.175-.066.345-.112.51-.137a2.835 2.835 0 0 1 1.893.299c.416.224.744.544.984.959.25.407.374.884.374 1.432 0 .523-.129.996-.386 1.42a2.633 2.633 0 0 1-1.046.996c-.44.241-.942.361-1.507.361zm.011-.722c.39 0 .74-.087 1.047-.262a1.89 1.89 0 0 0 .722-.722 2.13 2.13 0 0 0 .261-1.046c0-.423-.087-.789-.261-1.096a1.871 1.871 0 0 0-.722-.735 2.085 2.085 0 0 0-1.047-.261c-.58 0-1.066.178-1.457.535-.39.357-.585.868-.585 1.532 0 .398.087.755.262 1.071.182.307.427.548.734.722.308.175.656.262 1.046.262zm5.205.61h-.872v-8.941h.872v5.429l3.163-3.051h1.033l-3.312 3.213 3.587 3.35h-1.134l-3.337-3.151v3.151z"/><path stroke="#F3F4F6" stroke-width=".889" d="M90.302 189.927H446.1"/><path fill="#9CA3AF" d="M61.172 233.154H60.04v2.005h-.859v-2.005h-4.097v-.586l4.346-5.828h.61v5.654h1.133v.76zm-5.08-.76h3.088v-4.234l-3.088 4.234zm7.428 2.765h-.871v-8.942h.871v5.43l3.163-3.051h1.034l-3.312 3.213 3.586 3.35h-1.133l-3.338-3.151v3.151z"/><path stroke="#F3F4F6" stroke-width=".889" d="M90.302 229.927H446.1"/><path fill="#9CA3AF" d="M60.488 274.399v.759h-5.081v-.498l2.69-3.038a9.89 9.89 0 0 0 .822-1.009c.199-.291.344-.561.435-.81.092-.249.137-.506.137-.772 0-.315-.07-.597-.211-.846a1.496 1.496 0 0 0-.598-.586 1.74 1.74 0 0 0-.872-.211c-.34 0-.643.074-.909.224-.257.141-.46.344-.61.61-.15.257-.224.564-.224.921h-.847c0-.498.112-.934.336-1.307.224-.382.532-.681.922-.897.398-.216.855-.324 1.37-.324.49 0 .925.104 1.307.312.39.199.693.473.91.822.223.348.335.751.335 1.208 0 .299-.05.589-.149.871-.091.283-.257.594-.498.934-.24.341-.577.752-1.009 1.233l-2.055 2.404h3.799zm2.412.759h-.871v-8.941h.871v5.429l3.163-3.051h1.034l-3.313 3.213 3.587 3.35h-1.133l-3.338-3.15v3.15z"/><path stroke="#F3F4F6" stroke-width=".889" d="M90.302 269.926H446.1"/><path fill="#9CA3AF" d="M55.357 310.961c0-1.395.257-2.466.772-3.213.515-.755 1.254-1.133 2.217-1.133.954 0 1.69.378 2.204 1.133.523.747.784 1.818.784 3.213s-.257 2.466-.772 3.213c-.506.739-1.245 1.108-2.216 1.108-.972 0-1.715-.369-2.23-1.108-.506-.747-.759-1.818-.759-3.213zm.897 0c0 1.154.174 2.034.523 2.64.357.606.88.909 1.569.909.68 0 1.2-.299 1.556-.896.357-.598.536-1.482.536-2.653 0-1.179-.179-2.067-.536-2.665-.357-.606-.876-.909-1.556-.909-.681 0-1.2.303-1.557.909-.357.606-.535 1.494-.535 2.665zm7.534 4.197h-.872v-8.942h.872v5.43l3.163-3.051h1.034l-3.313 3.213 3.587 3.35h-1.134l-3.337-3.151v3.151z"/><path stroke="#F3F4F6" stroke-width=".889" d="M90.302 309.926H446.1"/><path fill="url(#b)" d="M131.356 198.651c-17.822.357-28.093 0-41.054 0v110.983H446.1v-58.403c-10.936 0-32.838-14.705-44.584-20.497-11.747-5.793-37.669 16.487-71.692 20.497-34.023 4.01-51.44-37.43-80.198-32.528-9.514 1.621-29.568 68.621-43.744 65.947-14.176-2.673-17.011-152.837-26.732-155.511-9.721-2.673-25.518 69.067-47.795 69.512z"/><path stroke="#F87171" stroke-linecap="round" stroke-width="1.779" d="M91.082 198.651c12.961 0 21.672.357 39.494 0 22.277-.445 38.073-72.185 47.794-69.512 9.721 2.674 12.557 152.838 26.733 155.511 14.176 2.674 34.23-64.326 43.744-65.947 28.758-4.902 46.174 36.538 80.198 32.528 34.023-4.01 59.945-26.29 71.691-20.497 11.746 5.792 33.648 20.497 44.584 20.497"/><path stroke="#7378D8" stroke-linecap="round" stroke-width="1.779" d="M91.082 247.369c11.354 0 22.189-20.903 35.25-20.903 7.657 0 15.711 16.624 24.571 18.212 17.436 3.126 58.429-62.853 69.339-63.869 28.79-2.68 56.363 30.818 72.177 39.304 15.814 8.486 33.641-12.263 43.793-21.439 15.815-14.293 85.995 24.565 109.108 21.439"/><path stroke="#FBBF24" stroke-linecap="round" stroke-width="1.779" d="M91.082 232.519c14.176.445 20.457-23.595 28.963-23.595s27.948 9.348 40.099 8.013c12.151-1.336 60.35-69.894 88.703-79.243 28.353-9.349 45.364 89.482 70.882 103.728 25.517 14.246 72.786-39.805 84.937-41.586 12.151-1.781 28.044 1.966 40.654 1.966"/><path fill="#7378D8" d="M169.008 248.791a3.31 3.31 0 0 1-1.388-.277 2.349 2.349 0 0 1-.939-.79 2 2 0 0 1-.342-1.153h1.441c.022.32.143.576.363.768.221.185.516.278.886.278.384 0 .683-.089.897-.267.213-.185.32-.437.32-.758a.855.855 0 0 0-.374-.736c-.249-.178-.594-.267-1.035-.267h-.779v-1.174h.694c.249 0 .459-.039.629-.118a.903.903 0 0 0 .395-.33.899.899 0 0 0 .139-.502c0-.285-.089-.509-.267-.673-.178-.163-.42-.245-.726-.245-.299 0-.54.092-.725.277-.178.178-.271.424-.278.737h-1.441c.007-.42.121-.794.342-1.121a2.22 2.22 0 0 1 .896-.779 2.824 2.824 0 0 1 1.281-.288c.505 0 .939.085 1.302.256.37.171.651.406.844.704.199.292.298.634.298 1.025 0 .327-.092.623-.277.886-.185.256-.452.477-.801.662.456.142.804.356 1.046.64.242.278.363.612.363 1.004 0 .448-.117.839-.352 1.174a2.402 2.402 0 0 1-.971.79c-.406.185-.886.277-1.441.277zm6.151-7.397c.548 0 1.029.11 1.441.331.42.213.747.502.982.865.242.362.363.761.363 1.195 0 .292-.032.559-.096.801a3.134 3.134 0 0 1-.299.725 4.89 4.89 0 0 1-.555.758l-2.167 2.626h-1.675l2.07-2.53a.89.89 0 0 1-.181.043 2.748 2.748 0 0 1-1.484-.288 2.256 2.256 0 0 1-.875-.822 2.313 2.313 0 0 1-.32-1.217c0-.462.117-.882.352-1.259.235-.378.562-.676.982-.897.427-.221.914-.331 1.462-.331zm-.01 1.238a1.44 1.44 0 0 0-.63.139 1.115 1.115 0 0 0-.448.406 1.182 1.182 0 0 0-.171.651c0 .27.057.498.171.683.113.185.263.324.448.416.192.086.402.128.63.128.334 0 .626-.096.875-.288.249-.199.373-.509.373-.929 0-.263-.06-.483-.181-.661a1.107 1.107 0 0 0-.459-.406 1.348 1.348 0 0 0-.608-.139zm8.899 4.643h-1.014v1.42h-1.473v-1.42h-3.427v-1.099l3.726-4.697h1.174v4.505h1.014v1.291zm-4.291-1.291h1.804v-2.38l-1.804 2.38zm7.692 2.796c-.548 0-1.032-.106-1.452-.32a2.55 2.55 0 0 1-.982-.875 2.19 2.19 0 0 1-.352-1.196c0-.305.032-.579.096-.821s.163-.481.299-.716a6.15 6.15 0 0 1 .544-.747l2.178-2.626h1.675l-2.07 2.53a.955.955 0 0 1 .181-.042c.057-.008.114-.011.171-.011.491 0 .925.099 1.302.299.377.199.673.476.886.832.214.349.32.751.32 1.206 0 .463-.121.883-.363 1.26a2.495 2.495 0 0 1-.982.897c-.42.22-.903.33-1.451.33zm.01-1.238c.228 0 .434-.046.619-.138.193-.093.346-.228.459-.406.114-.178.171-.395.171-.651 0-.278-.057-.505-.171-.683a1.003 1.003 0 0 0-.459-.406 1.37 1.37 0 0 0-.619-.139c-.334 0-.626.1-.875.299-.249.192-.374.498-.374.918 0 .263.057.484.171.662a1.2 1.2 0 0 0 .459.406c.192.092.399.138.619.138z"/><path fill="#fff" stroke="#7378D8" stroke-width="1.779" d="M172.9 234.027c0 2.078-1.454 3.558-3.012 3.558-1.557 0-3.012-1.48-3.012-3.558 0-2.079 1.455-3.558 3.012-3.558 1.558 0 3.012 1.479 3.012 3.558z"/><path fill="#fff" stroke="#FBBF24" stroke-width="1.779" d="M172.9 210.01c0 2.078-1.454 3.558-3.012 3.558-1.557 0-3.011-1.48-3.011-3.558s1.454-3.558 3.011-3.558c1.558 0 3.012 1.48 3.012 3.558z"/><path fill="#FBBF24" d="M152.665 202.548c-.512 0-.975-.1-1.388-.299a2.538 2.538 0 0 1-.971-.811 2.17 2.17 0 0 1-.384-1.196h1.483c.043.313.175.555.395.726.228.171.513.256.854.256.292 0 .527-.053.705-.16a.998.998 0 0 0 .384-.427c.078-.178.117-.363.117-.555 0-.192-.042-.373-.128-.544a1.053 1.053 0 0 0-.405-.427c-.185-.114-.424-.171-.715-.171-.285 0-.534.061-.748.182a1.13 1.13 0 0 0-.48.544l-1.217-.395.63-4.045h4.174v1.323h-3.096l-.224 1.473c.178-.121.37-.206.576-.256.207-.057.417-.085.63-.085.576 0 1.05.113 1.42.341.377.228.658.527.843.897.185.37.277.758.277 1.163 0 .306-.056.609-.17.908a2.295 2.295 0 0 1-.523.789 2.524 2.524 0 0 1-.854.566c-.335.135-.73.203-1.185.203zm3.525-3.704c0-1.195.242-2.113.726-2.754.484-.647 1.171-.971 2.06-.971.89 0 1.577.324 2.06.971.491.641.737 1.559.737 2.754 0 1.188-.242 2.103-.726 2.743-.477.641-1.167.961-2.071.961-.896 0-1.587-.32-2.07-.961-.477-.64-.716-1.555-.716-2.743zm1.527 0c0 .776.107 1.366.32 1.772.213.406.527.608.939.608.413 0 .726-.202.94-.608.22-.406.331-.996.331-1.772 0-.783-.111-1.377-.331-1.783-.214-.412-.527-.619-.94-.619-.405 0-.718.207-.939.619-.213.413-.32 1.007-.32 1.783zm9.645-2.754-2.669 6.351h-1.59l2.615-5.892h-3.426v-1.323h5.07v.864zm6.061 4.259c0 .427-.117.804-.352 1.132a2.346 2.346 0 0 1-.96.779c-.413.185-.897.277-1.452.277-.562 0-1.053-.092-1.473-.277-.42-.192-.744-.452-.971-.779a1.934 1.934 0 0 1-.342-1.132c0-.398.114-.736.342-1.014a2.32 2.32 0 0 1 .875-.64 2.168 2.168 0 0 1-.705-.609 1.5 1.5 0 0 1-.267-.896c0-.399.107-.751.321-1.057a2.16 2.16 0 0 1 .886-.737c.384-.185.829-.277 1.334-.277.498 0 .936.092 1.313.277.384.178.679.424.886.737.213.306.32.658.32 1.057 0 .348-.093.647-.278.896a2.056 2.056 0 0 1-.693.609c.348.149.636.363.864.64.235.278.352.616.352 1.014zm-3.778-3.106c0 .27.089.487.267.651.185.157.434.235.747.235.306 0 .548-.078.726-.235a.827.827 0 0 0 .277-.651c0-.299-.092-.53-.277-.694-.178-.171-.42-.256-.726-.256-.313 0-.562.085-.747.256-.178.164-.267.395-.267.694zm-.246 3.074c0 .214.05.402.15.566.107.156.252.277.437.363.185.078.41.117.673.117a1.7 1.7 0 0 0 .662-.117.986.986 0 0 0 .587-.929.902.902 0 0 0-.16-.534 1.005 1.005 0 0 0-.427-.352 1.576 1.576 0 0 0-.662-.128c-.263 0-.488.043-.673.128a1.08 1.08 0 0 0-.437.352.94.94 0 0 0-.15.534z"/><path fill="#fff" stroke="#F87171" stroke-width="1.779" d="M172.9 138.85c0 2.078-1.454 3.558-3.012 3.558-1.557 0-3.011-1.48-3.011-3.558s1.454-3.558 3.011-3.558c1.558 0 3.012 1.48 3.012 3.558z"/><path fill="#F87171" d="M155.536 129.189c0 .427-.117.805-.352 1.132a2.343 2.343 0 0 1-.961.779c-.412.185-.896.278-1.451.278-.562 0-1.053-.093-1.473-.278-.42-.192-.744-.452-.972-.779a1.938 1.938 0 0 1-.341-1.132c0-.398.114-.736.341-1.014.235-.277.527-.491.876-.64a2.165 2.165 0 0 1-.705-.608 1.504 1.504 0 0 1-.267-.897c0-.399.107-.751.32-1.057.214-.313.509-.558.886-.736.385-.185.829-.278 1.335-.278.498 0 .935.093 1.313.278.384.178.679.423.886.736.213.306.32.658.32 1.057 0 .349-.093.647-.278.897a2.057 2.057 0 0 1-.694.608c.349.149.637.363.865.64.235.278.352.616.352 1.014zm-3.778-3.106c0 .271.089.488.266.651.186.157.435.235.748.235.306 0 .548-.078.725-.235a.822.822 0 0 0 .278-.651c0-.299-.092-.53-.278-.694-.177-.17-.419-.256-.725-.256-.313 0-.562.086-.748.256-.177.164-.266.395-.266.694zm-.246 3.074c0 .214.05.402.15.566.106.157.252.278.437.363.185.078.409.117.673.117.256 0 .476-.039.661-.117a.967.967 0 0 0 .427-.363c.107-.164.161-.352.161-.566a.89.89 0 0 0-.161-.533 1.001 1.001 0 0 0-.427-.353 1.571 1.571 0 0 0-.661-.128c-.264 0-.488.043-.673.128a1.076 1.076 0 0 0-.437.353.935.935 0 0 0-.15.533zm10.532.705h-1.014v1.419h-1.473v-1.419h-3.426v-1.1l3.725-4.696h1.174v4.504h1.014v1.292zm-4.291-1.292h1.804v-2.38l-1.804 2.38zm7.534 2.808c-.519 0-.982-.093-1.387-.278a2.33 2.33 0 0 1-.94-.79 2.004 2.004 0 0 1-.341-1.153h1.441c.021.321.142.577.363.769.22.185.515.277.885.277.385 0 .684-.089.897-.266.214-.185.32-.438.32-.758a.856.856 0 0 0-.373-.737c-.249-.178-.594-.267-1.036-.267h-.779v-1.174h.694c.249 0 .459-.039.63-.117a.91.91 0 0 0 .395-.331.904.904 0 0 0 .138-.502c0-.284-.089-.509-.266-.672-.178-.164-.42-.246-.726-.246-.299 0-.541.093-.726.278-.178.178-.27.423-.278.736h-1.441c.008-.42.121-.793.342-1.12.221-.335.519-.595.897-.78a2.823 2.823 0 0 1 1.28-.288c.506 0 .94.086 1.303.256.37.171.651.406.843.705.199.292.299.633.299 1.025 0 .327-.093.622-.278.885-.185.257-.452.477-.8.662.455.143.804.356 1.046.641.242.277.363.612.363 1.003 0 .448-.118.84-.353 1.174a2.373 2.373 0 0 1-.971.79c-.405.185-.886.278-1.441.278zm6.224-.011c-.548 0-1.031-.107-1.451-.32a2.56 2.56 0 0 1-.982-.876 2.188 2.188 0 0 1-.353-1.195c0-.306.033-.58.097-.822s.163-.48.298-.715c.143-.235.324-.484.545-.747l2.177-2.626h1.676l-2.071 2.53a.898.898 0 0 1 .182-.043 2.748 2.748 0 0 1 1.473.288c.377.199.672.477.886.833.213.348.32.75.32 1.206 0 .462-.121.882-.363 1.259a2.494 2.494 0 0 1-.982.897c-.42.221-.904.331-1.452.331zm.011-1.238c.228 0 .434-.047.619-.139.192-.093.345-.228.459-.406.114-.178.171-.395.171-.651 0-.277-.057-.505-.171-.683a1.018 1.018 0 0 0-.459-.406 1.37 1.37 0 0 0-.619-.138c-.334 0-.626.099-.875.299-.249.192-.374.498-.374.918 0 .263.057.483.171.661a1.2 1.2 0 0 0 .459.406c.192.092.398.139.619.139z"/></g><rect width="448.306" height="326.445" x="33.819" y="33.445" stroke="#E5E7EB" stroke-width=".889" rx="8.45"/><rect width="251.155" height="97.84" x="254.414" y="305.763" fill="#fff" rx="7.329"/><path fill="#6B7280" d="M284.563 333.906v6.444c0 .738-.142 1.377-.425 1.915-.273.538-.67.953-1.19 1.245-.52.283-1.145.424-1.874.424-.721 0-1.336-.141-1.847-.424a3.017 3.017 0 0 1-1.191-1.177c-.282-.501-.433-1.085-.451-1.751h1.519c.018.42.1.78.246 1.081.155.292.374.52.657.684.292.155.647.233 1.067.233.428 0 .789-.082 1.081-.247.292-.164.51-.405.656-.725.155-.328.233-.725.233-1.19v-6.512h1.519zm1.431 6.197c0-.729.133-1.377.397-1.942.274-.575.652-1.022 1.136-1.341.492-.319 1.072-.479 1.737-.479.529 0 .99.123 1.382.369.402.237.73.584.985 1.04v-1.272h1.286v7.251h-1.286v-1.3a2.808 2.808 0 0 1-1.026 1.067c-.419.247-.885.37-1.395.37-.648 0-1.213-.16-1.697-.479a3.244 3.244 0 0 1-1.122-1.341c-.264-.574-.397-1.222-.397-1.943zm1.437 0c0 .812.192 1.437.575 1.875.383.438.875.656 1.477.656.402 0 .753-.1 1.054-.301.31-.209.552-.506.725-.889.182-.383.274-.839.274-1.368 0-.538-.092-.994-.274-1.368-.183-.374-.429-.657-.739-.848a1.871 1.871 0 0 0-1.04-.301c-.602 0-1.094.218-1.477.656-.383.438-.575 1.067-.575 1.888zm8.709-.465v4.091h-1.382v-7.251h1.286v1.204c.246-.402.566-.725.958-.972a2.539 2.539 0 0 1 1.354-.369c.748 0 1.346.233 1.793.698.456.465.684 1.131.684 1.997v4.693h-1.382v-4.228c0-.62-.132-1.099-.397-1.436-.264-.338-.657-.506-1.177-.506-.319 0-.611.086-.875.26a1.71 1.71 0 0 0-.629.711c-.156.31-.233.68-.233 1.108zm11.056 1.108v-4.268h1.382v7.251h-1.286v-1.136c-.182.365-.474.671-.875.917a2.592 2.592 0 0 1-1.341.356c-.484 0-.917-.096-1.3-.287a2.016 2.016 0 0 1-.876-.89c-.2-.41-.301-.926-.301-1.546v-4.665h1.382v4.392c0 .629.142 1.085.424 1.368.283.273.652.41 1.109.41.31 0 .592-.077.848-.232.255-.165.456-.388.602-.671.155-.292.232-.625.232-.999zm2.781-.643c0-.729.133-1.377.397-1.942.274-.575.652-1.022 1.136-1.341.492-.319 1.071-.479 1.737-.479.529 0 .99.123 1.382.369.401.237.73.584.985 1.04v-1.272h1.286v7.251h-1.286v-1.3a2.808 2.808 0 0 1-1.026 1.067c-.419.247-.885.37-1.395.37-.648 0-1.214-.16-1.697-.479a3.244 3.244 0 0 1-1.122-1.341c-.264-.574-.397-1.222-.397-1.943zm1.437 0c0 .812.192 1.437.575 1.875.383.438.875.656 1.477.656.402 0 .753-.1 1.054-.301.31-.209.552-.506.725-.889.182-.383.273-.839.273-1.368 0-.538-.091-.994-.273-1.368-.183-.374-.429-.657-.739-.848a1.871 1.871 0 0 0-1.04-.301c-.602 0-1.094.218-1.477.656-.383.438-.575 1.067-.575 1.888zm8.709-.082v3.708h-1.382v-7.251h1.286v1.532a2.848 2.848 0 0 1 1.136-1.19 3.276 3.276 0 0 1 1.655-.438v1.437c-.52-.028-.985.031-1.395.177a1.953 1.953 0 0 0-.958.726c-.228.328-.342.761-.342 1.299zm9.942-3.543-3.625 9.892h-1.505l1.039-2.737-2.859-7.155h1.491l2.107 5.527 1.957-5.527h1.395zm7.48 4.104h-4.255v-1.245h4.255v1.245zm10.389-6.676v6.444c0 .738-.142 1.377-.425 1.915-.273.538-.67.953-1.19 1.245-.52.283-1.145.424-1.874.424-.721 0-1.336-.141-1.847-.424a3.017 3.017 0 0 1-1.191-1.177c-.282-.501-.433-1.085-.451-1.751h1.519c.018.42.1.78.246 1.081.155.292.374.52.657.684.292.155.647.233 1.067.233.428 0 .789-.082 1.081-.247.292-.164.51-.405.656-.725.155-.328.233-.725.233-1.19v-6.512h1.519zm6.48 6.84v-4.268h1.382v7.251h-1.286v-1.136c-.183.365-.475.671-.876.917a2.586 2.586 0 0 1-1.341.356c-.483 0-.916-.096-1.299-.287a2.016 2.016 0 0 1-.876-.89c-.201-.41-.301-.926-.301-1.546v-4.665h1.382v4.392c0 .629.141 1.085.424 1.368.283.273.652.41 1.108.41.31 0 .593-.077.848-.232.256-.165.456-.388.602-.671.155-.292.233-.625.233-.999zm4.683-1.108v4.091h-1.382v-7.251h1.286v1.204c.246-.402.565-.725.958-.972a2.539 2.539 0 0 1 1.354-.369c.748 0 1.346.233 1.792.698.457.465.685 1.131.685 1.997v4.693h-1.382v-4.228c0-.62-.133-1.099-.397-1.436-.265-.338-.657-.506-1.177-.506-.319 0-.611.086-.875.26a1.711 1.711 0 0 0-.63.711c-.155.31-.232.68-.232 1.108zm9.51 4.228c-.702 0-1.318-.155-1.847-.465a3.276 3.276 0 0 1-1.217-1.341c-.292-.575-.438-1.241-.438-1.998 0-.72.15-1.359.451-1.915a3.427 3.427 0 0 1 1.232-1.314c.519-.328 1.112-.492 1.778-.492.547 0 1.035.105 1.464.315.438.2.807.488 1.108.862.31.364.534.798.671 1.299.136.493.173 1.036.109 1.628h-6.006v-.916h4.542c-.027-.675-.214-1.2-.561-1.574-.337-.383-.789-.574-1.354-.574-.411 0-.771.109-1.081.328-.301.21-.538.515-.712.917-.164.392-.246.871-.246 1.436 0 .566.082 1.054.246 1.464.165.402.402.712.712.931.31.219.684.328 1.122.328.52 0 .948-.132 1.286-.397.346-.264.575-.634.684-1.108h1.368c-.173.803-.556 1.437-1.149 1.902-.584.456-1.304.684-2.162.684z"/><path fill="#111827" d="M281.054 373.638h-2.15v-14.033h5.238c1.616 0 2.88.384 3.792 1.153.912.756 1.368 1.831 1.368 3.225 0 1.003-.299 1.87-.899 2.599-.599.73-1.433 1.219-2.502 1.466l3.812 5.59h-2.58l-3.499-5.277h-2.58v5.277zm0-12.235v5.16h2.952c.99 0 1.759-.215 2.306-.645.547-.443.821-1.088.821-1.935s-.274-1.486-.821-1.916c-.547-.443-1.316-.664-2.306-.664h-2.952zm12.161 12.235h-1.974v-10.359h1.974v10.359zm.43-12.763c0 .365-.137.678-.411.938-.26.248-.599.372-1.016.372-.43 0-.782-.124-1.055-.372a1.276 1.276 0 0 1-.391-.938c0-.391.13-.704.391-.938.273-.248.625-.371 1.055-.371.417 0 .756.123 1.016.371.274.234.411.547.411.938zm10.128 9.675c0 1.016-.377 1.818-1.133 2.404-.756.586-1.824.88-3.206.88-1.355 0-2.43-.32-3.225-.958-.781-.639-1.224-1.512-1.329-2.619h1.896c.026.651.28 1.166.762 1.544.496.365 1.141.547 1.935.547.691 0 1.245-.124 1.662-.371.43-.248.645-.613.645-1.095 0-.43-.144-.756-.43-.977-.274-.222-.736-.391-1.388-.508l-1.681-.313c-.951-.182-1.687-.515-2.208-.997-.522-.495-.782-1.133-.782-1.915 0-.613.163-1.147.488-1.603.339-.469.808-.834 1.408-1.094.599-.261 1.296-.391 2.091-.391.834 0 1.564.143 2.189.43a3.597 3.597 0 0 1 1.505 1.192c.378.508.593 1.121.645 1.837h-1.896c-.065-.612-.313-1.094-.743-1.446-.43-.352-.99-.528-1.68-.528-.626 0-1.134.13-1.525.391-.378.248-.567.593-.567 1.036 0 .417.137.736.411.958.286.208.742.377 1.368.508l1.759.332c1.029.182 1.792.502 2.287.958.495.456.742 1.055.742 1.798zm3.739 3.088h-1.974v-14.033h1.974v8.306l4.437-4.632h2.325l-4.788 5.023 5.238 5.336h-2.541l-4.671-4.906v4.906zm11.16-5.179c0-1.043.189-1.968.567-2.776.378-.821.912-1.459 1.603-1.915.69-.456 1.498-.684 2.423-.684a3.56 3.56 0 0 1 1.896.527 3.902 3.902 0 0 1 1.427 1.447v-5.453h1.974v14.033h-1.837v-1.857a4.027 4.027 0 0 1-1.466 1.525c-.6.352-1.264.528-1.994.528-.925 0-1.733-.229-2.423-.685-.691-.469-1.225-1.107-1.603-1.915-.378-.821-.567-1.746-.567-2.775zm2.052 0c0 1.159.274 2.052.821 2.677.548.626 1.251.938 2.111.938.573 0 1.075-.143 1.505-.43.443-.299.788-.723 1.036-1.27.261-.547.391-1.199.391-1.954 0-.769-.13-1.421-.391-1.955s-.612-.938-1.055-1.212a2.684 2.684 0 0 0-1.486-.43c-.86 0-1.563.313-2.111.938-.547.626-.821 1.525-.821 2.698zm14.452 5.375c-1.003 0-1.883-.222-2.639-.665-.742-.456-1.322-1.095-1.739-1.915-.417-.821-.626-1.773-.626-2.854 0-1.029.215-1.942.645-2.736a4.881 4.881 0 0 1 1.76-1.877c.742-.469 1.589-.703 2.54-.703.782 0 1.479.15 2.092.449a4.31 4.31 0 0 1 1.583 1.232c.443.521.762 1.14.958 1.856.195.704.247 1.479.156 2.326h-8.58v-1.309h6.489c-.039-.965-.307-1.714-.802-2.248-.482-.547-1.127-.821-1.935-.821-.586 0-1.101.156-1.544.469-.43.3-.769.736-1.016 1.31-.235.56-.352 1.244-.352 2.052s.117 1.505.352 2.091c.234.574.573 1.017 1.016 1.329.443.313.978.469 1.603.469.743 0 1.355-.188 1.837-.566.495-.378.821-.906.977-1.584h1.955c-.248 1.147-.795 2.053-1.642 2.717-.834.652-1.863.978-3.088.978zm12.244-2.111v1.739c-.3.143-.593.241-.88.293a4.703 4.703 0 0 1-.879.079c-.639 0-1.206-.118-1.701-.352-.482-.235-.86-.6-1.133-1.095-.274-.495-.411-1.12-.411-1.876v-5.551h-2.287v-1.681h2.287v-3.068h1.974v3.068h3.127v1.681h-3.127v5.101c0 .717.157 1.219.469 1.505.326.287.75.43 1.271.43.234 0 .456-.019.664-.058a3.23 3.23 0 0 0 .626-.215zm7.865 1.915v-1.603a3.419 3.419 0 0 1-1.33 1.329c-.56.313-1.224.47-1.993.47-1.069 0-1.929-.281-2.58-.841-.652-.573-.977-1.336-.977-2.287 0-1.016.397-1.785 1.192-2.306.808-.521 1.98-.782 3.518-.782a13.818 13.818 0 0 1 1.935.117v-.762c0-.73-.189-1.296-.567-1.7-.378-.417-.912-.626-1.603-.626-.716 0-1.29.209-1.72.626-.416.404-.638.964-.664 1.681h-1.798c.026-.782.215-1.46.567-2.033a3.654 3.654 0 0 1 1.465-1.349c.626-.325 1.343-.488 2.15-.488 1.277 0 2.268.345 2.971 1.036.717.677 1.075 1.635 1.075 2.873v6.645h-1.641zm-5.004-2.99c0 .534.189.964.567 1.29.378.325.879.488 1.505.488.834 0 1.492-.234 1.974-.703.482-.482.723-1.121.723-1.916v-.84c-.378-.039-.71-.065-.997-.078a9.098 9.098 0 0 0-.821-.04c-.99 0-1.733.15-2.228.45-.482.287-.723.736-.723 1.349zm10.868 2.99h-1.974v-10.359h1.974v10.359zm.43-12.763c0 .365-.137.678-.411.938-.26.248-.599.372-1.016.372-.43 0-.782-.124-1.055-.372a1.276 1.276 0 0 1-.391-.938c0-.391.13-.704.391-.938.273-.248.625-.371 1.055-.371.417 0 .756.123 1.016.371.274.234.411.547.411.938zm3.913 12.763h-1.994v-14.033h1.994v14.033zm10.558-3.088c0 1.016-.378 1.818-1.134 2.404-.755.586-1.824.88-3.205.88-1.355 0-2.43-.32-3.225-.958-.782-.639-1.225-1.512-1.329-2.619h1.896c.026.651.28 1.166.762 1.544.495.365 1.14.547 1.935.547.691 0 1.244-.124 1.661-.371.43-.248.645-.613.645-1.095 0-.43-.143-.756-.43-.977-.273-.222-.736-.391-1.387-.508l-1.681-.313c-.951-.182-1.688-.515-2.209-.997-.521-.495-.782-1.133-.782-1.915 0-.613.163-1.147.489-1.603.339-.469.808-.834 1.407-1.094.6-.261 1.297-.391 2.092-.391.834 0 1.563.143 2.189.43a3.597 3.597 0 0 1 1.505 1.192c.378.508.593 1.121.645 1.837h-1.896c-.065-.612-.313-1.094-.743-1.446-.43-.352-.99-.528-1.681-.528-.625 0-1.133.13-1.524.391-.378.248-.567.593-.567 1.036 0 .417.137.736.41.958.287.208.743.377 1.368.508l1.76.332c1.029.182 1.791.502 2.286.958.495.456.743 1.055.743 1.798z"/><rect width="63.636" height="20" x="418.968" y="356.638" fill="#FEF2F2" rx="10"/><path fill="#B91C1C" d="M429.244 370.638h-1.29v-8.42h1.29v3.518h4.269v-3.518h1.29v8.42h-1.29v-3.776h-4.269v3.776zm8.482 0h-1.185v-6.215h1.185v6.215zm.258-7.658a.75.75 0 0 1-.246.563.849.849 0 0 1-.61.223c-.258 0-.469-.074-.633-.223a.765.765 0 0 1-.235-.563.72.72 0 0 1 .235-.563c.164-.148.375-.222.633-.222.25 0 .453.074.61.222a.706.706 0 0 1 .246.563zm3.872 10.05c-.539 0-1.012-.093-1.419-.281a2.222 2.222 0 0 1-.961-.786 2.372 2.372 0 0 1-.376-1.208h1.15c.039.43.191.759.457.985.274.235.653.352 1.138.352.539 0 .946-.141 1.219-.422.274-.274.411-.68.411-1.22v-1.125a2.085 2.085 0 0 1-1.9 1.184c-.516 0-.973-.133-1.372-.399a2.693 2.693 0 0 1-.938-1.102c-.227-.469-.34-1.005-.34-1.607 0-.617.109-1.157.328-1.618.219-.469.524-.833.915-1.091a2.468 2.468 0 0 1 1.372-.387c.445 0 .84.106 1.184.317.344.211.622.512.833.903v-1.102h1.102v6.004c0 .821-.246 1.458-.739 1.911-.492.462-1.18.692-2.064.692zm-1.735-5.629c0 .641.148 1.15.445 1.525.297.367.704.551 1.22.551.336 0 .629-.082.879-.246.258-.172.458-.411.599-.716.14-.312.211-.672.211-1.078 0-.642-.153-1.154-.458-1.537-.305-.383-.715-.574-1.231-.574-.508 0-.915.187-1.22.563-.297.367-.445.871-.445 1.512zm7.362-.269v3.506h-1.184v-8.42h1.184v3.202c.203-.337.461-.606.774-.81a2.061 2.061 0 0 1 1.126-.305c.641 0 1.153.2 1.536.599.391.398.587.969.587 1.712v4.022h-1.185v-3.624c0-.531-.113-.942-.34-1.231-.227-.289-.563-.434-1.008-.434-.274 0-.524.074-.751.223a1.462 1.462 0 0 0-.539.61 2.1 2.1 0 0 0-.2.95zm9.231.328v3.178h-1.185v-6.215h1.103v1.313c.219-.43.543-.77.973-1.02.438-.25.911-.375 1.419-.375v1.231a3.058 3.058 0 0 0-1.196.152 1.679 1.679 0 0 0-.821.622c-.196.281-.293.653-.293 1.114zm4.432 3.178h-1.185v-6.215h1.185v6.215zm.258-7.658a.747.747 0 0 1-.247.563c-.156.149-.359.223-.609.223a.909.909 0 0 1-.634-.223.768.768 0 0 1-.234-.563c0-.234.078-.422.234-.563a.913.913 0 0 1 .634-.222c.25 0 .453.074.609.222a.704.704 0 0 1 .247.563zm6.311 5.805c0 .61-.226 1.091-.68 1.443-.453.351-1.094.527-1.923.527-.813 0-1.458-.191-1.935-.574-.469-.383-.735-.907-.797-1.572h1.137c.016.391.168.7.457.927.298.219.685.328 1.161.328.415 0 .747-.074.997-.223a.713.713 0 0 0 .387-.656c0-.258-.086-.454-.258-.587-.164-.133-.441-.234-.832-.305l-1.009-.187c-.571-.11-1.012-.309-1.325-.598-.313-.298-.469-.681-.469-1.15 0-.367.098-.688.293-.961.203-.282.485-.501.844-.657.36-.156.778-.235 1.255-.235.501 0 .938.086 1.314.258.375.165.676.403.903.716.226.305.355.672.387 1.102h-1.138c-.039-.367-.188-.657-.446-.868-.258-.211-.594-.316-1.008-.316-.375 0-.68.078-.915.234a.704.704 0 0 0-.34.622c0 .25.082.441.246.574.172.125.446.227.821.305l1.056.2c.617.109 1.075.301 1.372.574.297.274.445.634.445 1.079zm2.478 1.853h-1.184v-8.42h1.184v4.984l2.662-2.779h1.396l-2.874 3.014 3.143 3.201h-1.524l-2.803-2.943v2.943z"/><rect width="251.155" height="97.84" x="254.414" y="305.763" stroke="#E5E7EB" stroke-width=".977" rx="7.329"/><g filter="url(#c)"><circle cx="112.965" cy="350.877" r="42.61" fill="#fff"/><circle cx="112.965" cy="350.877" r="42.233" stroke="#E5E7EB" stroke-width=".754"/></g><path fill="#6B7280" d="M89.347 343.892h-1.162v-6.536h-2.47v-1.045h6.102v1.045h-2.47v6.536zm5.024.105c-.394 0-.76-.07-1.098-.211a2.697 2.697 0 0 1-.866-.612 3.007 3.007 0 0 1-.58-.929 3.215 3.215 0 0 1-.201-1.151c0-.416.067-.799.2-1.151a2.88 2.88 0 0 1 .581-.919c.246-.267.535-.471.866-.612a2.706 2.706 0 0 1 1.098-.222c.401 0 .767.074 1.098.222.338.141.627.345.866.612.246.261.436.567.57.919.14.352.211.735.211 1.151 0 .415-.07.799-.211 1.151a2.857 2.857 0 0 1-.57.929 2.56 2.56 0 0 1-.866.612 2.77 2.77 0 0 1-1.098.211zm0-.939c.31 0 .588-.078.834-.233.253-.162.45-.39.591-.686.148-.296.222-.644.222-1.045 0-.408-.074-.757-.222-1.046a1.55 1.55 0 0 0-1.425-.908c-.303 0-.58.078-.834.233-.247.155-.444.38-.591.675-.141.289-.212.638-.212 1.046 0 .401.07.749.212 1.045.147.296.344.524.59.686.254.155.532.233.835.233zm6.886-.201v.94c-.162.077-.32.13-.475.158a2.552 2.552 0 0 1-.475.042 2.12 2.12 0 0 1-.919-.19 1.377 1.377 0 0 1-.612-.591c-.148-.267-.222-.605-.222-1.014v-2.998H97.32v-.908h1.235v-1.658h1.067v1.658h1.689v.908h-1.69v2.756c0 .387.085.658.254.813.176.154.405.232.686.232.127 0 .247-.011.359-.032.12-.028.232-.067.338-.116zm.515-1.763c0-.563.102-1.063.306-1.5.211-.443.503-.788.876-1.034.38-.247.827-.37 1.341-.37.408 0 .764.095 1.066.285.31.183.564.451.761.803v-.982h.992v5.596h-.992v-1.003a2.17 2.17 0 0 1-.792.823 2.09 2.09 0 0 1-1.077.285c-.5 0-.936-.123-1.309-.369a2.51 2.51 0 0 1-.866-1.035 3.545 3.545 0 0 1-.306-1.499zm1.108 0c0 .626.148 1.108.444 1.446.295.338.675.507 1.14.507.31 0 .581-.077.813-.232.239-.162.426-.391.56-.687.14-.295.211-.647.211-1.055 0-.416-.071-.768-.211-1.056a1.534 1.534 0 0 0-.571-.655 1.441 1.441 0 0 0-.802-.232c-.465 0-.845.169-1.14.507-.296.338-.444.823-.444 1.457zm6.732 2.798h-1.077v-7.581h1.077v7.581zm5.893.116a2.51 2.51 0 0 1-1.362-.37 2.596 2.596 0 0 1-.919-1.024c-.218-.443-.327-.95-.327-1.52 0-.563.113-1.063.338-1.5.225-.436.535-.777.929-1.024.394-.253.841-.38 1.341-.38.465 0 .876.099 1.235.296.366.19.665.464.898.823.239.352.39.771.454 1.257h-1.119c-.057-.451-.215-.803-.476-1.056-.26-.253-.587-.38-.981-.38a1.3 1.3 0 0 0-.803.253 1.605 1.605 0 0 0-.528.676c-.126.289-.19.634-.19 1.035 0 .394.064.739.19 1.034.127.296.303.525.528.687.225.162.493.243.803.243.401 0 .728-.127.981-.38.261-.254.423-.606.486-1.056h1.109c-.057.492-.201.918-.433 1.277a2.456 2.456 0 0 1-.898.824c-.366.19-.784.285-1.256.285zm3.207-2.914c0-.563.102-1.063.307-1.5.211-.443.503-.788.876-1.034.38-.247.827-.37 1.341-.37.408 0 .764.095 1.066.285.31.183.563.451.76.803v-.982h.993v5.596h-.993v-1.003a2.174 2.174 0 0 1-.791.823 2.09 2.09 0 0 1-1.077.285c-.5 0-.937-.123-1.31-.369a2.507 2.507 0 0 1-.865-1.035 3.53 3.53 0 0 1-.307-1.499zm1.109 0c0 .626.148 1.108.443 1.446.296.338.676.507 1.141.507.31 0 .581-.077.813-.232.239-.162.426-.391.559-.687.141-.295.212-.647.212-1.055 0-.416-.071-.768-.212-1.056a1.526 1.526 0 0 0-.57-.655 1.443 1.443 0 0 0-.802-.232c-.465 0-.845.169-1.141.507-.295.338-.443.823-.443 1.457zm10.089 1.13c0 .549-.204.981-.612 1.298-.409.317-.986.475-1.732.475-.732 0-1.313-.172-1.742-.517-.422-.345-.662-.817-.718-1.415h1.024c.014.352.151.63.412.834.267.197.616.296 1.045.296.373 0 .672-.067.898-.201a.643.643 0 0 0 .348-.591c0-.232-.077-.408-.232-.528-.148-.12-.398-.211-.75-.274l-.908-.169c-.514-.099-.911-.278-1.193-.539-.282-.267-.422-.612-.422-1.035 0-.33.088-.619.264-.865a1.79 1.79 0 0 1 .76-.592c.324-.14.7-.211 1.13-.211.45 0 .844.078 1.182.233.338.147.609.362.813.644.204.274.32.605.348.992h-1.024c-.035-.331-.169-.591-.401-.781-.232-.19-.535-.285-.908-.285-.338 0-.612.07-.823.211a.632.632 0 0 0-.307.559c0 .226.074.398.222.518.155.112.401.204.739.274l.95.18c.556.098.968.271 1.236.517.267.247.401.57.401.972zm3.466 1.773c-.542 0-1.017-.119-1.425-.359a2.52 2.52 0 0 1-.94-1.034c-.225-.444-.338-.958-.338-1.542 0-.556.116-1.049.348-1.478.233-.429.549-.767.951-1.014.401-.253.858-.38 1.372-.38.423 0 .799.081 1.13.243.338.155.623.377.855.665.24.282.412.616.518 1.003.105.38.133.799.084 1.257h-4.635v-.708h3.505c-.021-.521-.165-.925-.433-1.214-.26-.296-.608-.443-1.045-.443-.317 0-.595.084-.834.253a1.622 1.622 0 0 0-.549.707c-.127.303-.19.673-.19 1.109 0 .437.063.813.19 1.13.127.31.31.549.549.718.239.169.528.253.866.253.401 0 .732-.102.992-.306.268-.204.444-.489.528-.855h1.056c-.134.619-.429 1.108-.887 1.467-.45.352-1.006.528-1.668.528zm8.123-1.773c0 .549-.204.981-.612 1.298-.408.317-.985.475-1.732.475-.732 0-1.312-.172-1.742-.517-.422-.345-.661-.817-.718-1.415h1.024c.015.352.152.63.412.834.268.197.616.296 1.046.296.373 0 .672-.067.897-.201a.643.643 0 0 0 .348-.591c0-.232-.077-.408-.232-.528-.148-.12-.398-.211-.75-.274l-.908-.169c-.513-.099-.911-.278-1.193-.539-.281-.267-.422-.612-.422-1.035 0-.33.088-.619.264-.865a1.79 1.79 0 0 1 .76-.592 2.83 2.83 0 0 1 1.13-.211c.45 0 .845.078 1.182.233.338.147.609.362.813.644.205.274.321.605.349.992h-1.024c-.035-.331-.169-.591-.401-.781-.233-.19-.535-.285-.908-.285-.338 0-.613.07-.824.211a.633.633 0 0 0-.306.559c0 .226.074.398.221.518.155.112.402.204.74.274l.95.18c.556.098.968.271 1.235.517.268.247.401.57.401.972z"/><path fill="#000" d="M97.593 364.892h-1.538v-8.869h-1.976v-1.328h3.514v10.197zm7.982-9.307-3.936 9.307h-1.644l3.876-8.824h-5.174v-1.373h6.878v.89zm2.196 8.658c0 .483-.12.915-.362 1.297a2.545 2.545 0 0 1-.98.92c-.412.232-.895.352-1.448.362v-.859c.493-.02.895-.151 1.207-.393.311-.231.487-.532.528-.905a2.101 2.101 0 0 1-.181.046.956.956 0 0 1-.875-.287 1.044 1.044 0 0 1-.272-.724c0-.332.106-.593.317-.784.211-.191.473-.287.784-.287.413 0 .729.141.951.423.221.281.331.678.331 1.191zm8.493-1.599h-1.388v2.248h-1.523v-2.248h-4.902v-1.071l5.249-6.878h1.176v6.622h1.388v1.327zm-6.109-1.327h3.198v-4.314l-3.198 4.314zm10.561 3.71c-.724 0-1.368-.15-1.931-.452a3.487 3.487 0 0 1-1.312-1.222 3.115 3.115 0 0 1-.483-1.689c0-.432.05-.82.151-1.162.11-.341.261-.673.452-.995.201-.322.448-.659.739-1.011l3.077-3.801h1.735l-3.002 3.741c.151-.06.297-.1.438-.121.151-.03.296-.045.437-.045.664 0 1.252.141 1.765.422.523.282.93.674 1.222 1.177.301.493.452 1.066.452 1.719 0 .644-.161 1.227-.482 1.75a3.32 3.32 0 0 1-1.313 1.237c-.563.302-1.211.452-1.945.452zm.015-1.282c.402 0 .764-.085 1.086-.256a2.09 2.09 0 0 0 .769-.739c.191-.322.286-.694.286-1.116 0-.453-.095-.84-.286-1.162a1.95 1.95 0 0 0-.769-.739 2.279 2.279 0 0 0-1.086-.256c-.594 0-1.101.181-1.524.543-.412.352-.618.885-.618 1.599 0 .422.095.794.286 1.116.191.322.448.573.77.754.321.171.683.256 1.086.256zm4.639-3.936c0-1.69.322-2.987.965-3.892.654-.915 1.584-1.372 2.791-1.372 1.207 0 2.137.457 2.79 1.372.654.905.981 2.202.981 3.892 0 1.689-.327 2.986-.981 3.891-.643.895-1.573 1.343-2.79 1.343s-2.147-.448-2.791-1.343c-.643-.905-.965-2.202-.965-3.891zm1.569 0c0 1.257.186 2.217.558 2.881.372.653.915.98 1.629.98s1.257-.327 1.629-.98c.382-.654.573-1.614.573-2.881 0-1.277-.191-2.243-.573-2.896-.372-.664-.915-.996-1.629-.996-.704 0-1.247.332-1.629.996-.372.653-.558 1.619-.558 2.896z"/><mask id="e" fill="#fff"><path fill-rule="evenodd" d="M113.342 441c49.982 0 90.5-40.518 90.5-90.5s-40.518-90.5-90.5-90.5-90.5 40.518-90.5 90.5 40.518 90.5 90.5 90.5zm0-35.299c30.487 0 55.201-24.714 55.201-55.201 0-30.487-24.714-55.201-55.201-55.201-30.487 0-55.201 24.714-55.201 55.201 0 30.487 24.714 55.201 55.201 55.201z" clip-rule="evenodd"/></mask><path fill="url(#d)" fill-rule="evenodd" d="M113.342 441c49.982 0 90.5-40.518 90.5-90.5s-40.518-90.5-90.5-90.5-90.5 40.518-90.5 90.5 40.518 90.5 90.5 90.5zm0-35.299c30.487 0 55.201-24.714 55.201-55.201 0-30.487-24.714-55.201-55.201-55.201-30.487 0-55.201 24.714-55.201 55.201 0 30.487 24.714 55.201 55.201 55.201z" clip-rule="evenodd"/><path fill="#fff" d="M203.088 350.5c0 49.565-40.181 89.746-89.746 89.746v1.508c50.398 0 91.254-40.856 91.254-91.254h-1.508zm-89.746-89.746c49.565 0 89.746 40.181 89.746 89.746h1.508c0-50.398-40.856-91.254-91.254-91.254v1.508zM23.596 350.5c0-49.565 40.18-89.746 89.746-89.746v-1.508c-50.398 0-91.254 40.856-91.254 91.254h1.508zm89.746 89.746c-49.565 0-89.746-40.181-89.746-89.746h-1.508c0 50.398 40.856 91.254 91.254 91.254v-1.508zm54.447-89.746c0 30.07-24.377 54.447-54.447 54.447v1.508c30.903 0 55.956-25.052 55.956-55.955h-1.509zm-54.447-54.447c30.07 0 54.447 24.377 54.447 54.447h1.509c0-30.903-25.053-55.955-55.956-55.955v1.508zM58.895 350.5c0-30.07 24.377-54.447 54.447-54.447v-1.508c-30.903 0-55.955 25.052-55.955 55.955h1.508zm54.447 54.447c-30.07 0-54.447-24.377-54.447-54.447h-1.508c0 30.903 25.052 55.955 55.955 55.955v-1.508z" mask="url(#e)"/><mask id="f" fill="#fff"><path fill-rule="evenodd" d="M203.839 349.749C203.436 300.113 163.073 260 113.342 260c-32.856 0-61.622 17.509-77.478 43.704l30.35 18.038c9.699-15.86 27.178-26.443 47.128-26.443 30.236 0 54.794 24.309 55.196 54.45h35.301z" clip-rule="evenodd"/></mask><path fill="#F87171" fill-rule="evenodd" d="M203.839 349.749C203.436 300.113 163.073 260 113.342 260c-32.856 0-61.622 17.509-77.478 43.704l30.35 18.038c9.699-15.86 27.178-26.443 47.128-26.443 30.236 0 54.794 24.309 55.196 54.45h35.301z" clip-rule="evenodd"/><path fill="#fff" d="M203.839 349.749v.754h.76l-.006-.76-.754.006zM35.864 303.704l-.645-.39-.394.65.654.389.385-.649zm30.35 18.038-.385.648.64.38.389-.635-.643-.393zm102.324 28.007-.754.01.01.744h.744v-.754zm36.055-.006c-.407-50.05-41.105-90.497-91.251-90.497v1.508c49.317 0 89.343 39.779 89.743 89.001l1.508-.012zm-91.251-90.497c-33.13 0-62.136 17.656-78.123 44.068l1.29.781c15.725-25.98 44.252-43.341 76.833-43.341v-1.508zm-77.863 45.107 30.35 18.037.77-1.297-30.35-18.037-.77 1.297zm77.863-9.808c-20.224 0-37.941 10.729-47.77 26.803l1.286.787c9.567-15.644 26.807-26.082 46.484-26.082v-1.508zm55.95 55.194c-.407-30.553-25.301-55.194-55.95-55.194v1.508c29.823 0 54.046 23.977 54.442 53.706l1.508-.02zm-.754.764h35.301v-1.508h-35.301v1.508z" mask="url(#f)"/><mask id="g" fill="#fff"><path fill-rule="evenodd" d="M203.691 350.502v-.002c0-49.982-40.518-90.5-90.5-90.5-2.93 0-5.827.139-8.685.412a90.462 90.462 0 0 0-13.9 2.473l8.867 34.132a55.291 55.291 0 0 1 13.718-1.718c30.487 0 55.202 24.714 55.202 55.201v.002h35.298z" clip-rule="evenodd"/></mask><path fill="#FBBF24" fill-rule="evenodd" d="M203.691 350.502v-.002c0-49.982-40.518-90.5-90.5-90.5-2.93 0-5.827.139-8.685.412a90.462 90.462 0 0 0-13.9 2.473l8.867 34.132a55.291 55.291 0 0 1 13.718-1.718c30.487 0 55.202 24.714 55.202 55.201v.002h35.298z" clip-rule="evenodd"/><path fill="#fff" d="M203.691 350.502v.754h.754v-.754h-.754zm-99.185-90.09-.072-.751h-.002l.074.751zm-13.9 2.473-.19-.73-.73.19.19.73.73-.19zm8.867 34.132-.73.19.189.727.727-.186-.186-.731zm68.92 53.485h-.755v.754h.755v-.754zm36.052 0v-.002h-1.508v.002h1.508zm0-.002c0-50.398-40.856-91.254-91.254-91.254v1.508c49.565 0 89.746 40.181 89.746 89.746h1.508zm-91.254-91.254c-2.954 0-5.875.14-8.757.415l.143 1.501a90.833 90.833 0 0 1 8.614-.408v-1.508zm-8.759.415a91.35 91.35 0 0 0-14.016 2.494l.38 1.46a89.714 89.714 0 0 1 13.783-2.453l-.147-1.501zm-14.556 3.414 8.867 34.132 1.46-.38-8.868-34.132-1.46.38zm23.315 31.47a56.07 56.07 0 0 0-13.905 1.741l.373 1.462a54.515 54.515 0 0 1 13.532-1.695v-1.508zm55.956 55.955c0-30.903-25.052-55.955-55.956-55.955v1.508c30.071 0 54.447 24.377 54.447 54.447h1.509zm0 .002v-.002h-1.509v.002h1.509zm-.754.754h35.298v-1.508h-35.298v1.508z" mask="url(#g)"/><defs><linearGradient id="b" x1="268.981" x2="268.981" y1="129.066" y2="311.413" gradientUnits="userSpaceOnUse"><stop stop-color="#FEF2F2"/><stop offset="1" stop-color="#FEF2F2" stop-opacity="0"/></linearGradient><linearGradient id="d" x1="22.842" x2="226.168" y1="260" y2="290.078" gradientUnits="userSpaceOnUse"><stop stop-color="#4568DC"/><stop offset="1" stop-color="#B06AB3"/></linearGradient><clipPath id="a"><rect width="449.196" height="327.335" x="33.374" y="33" fill="#fff" rx="8.895"/></clipPath><filter id="c" width="92.763" height="92.763" x="66.584" y="307.513" color-interpolation-filters="sRGB" filterUnits="userSpaceOnUse"><feFlood flood-opacity="0" result="BackgroundImageFix"/><feColorMatrix in="SourceAlpha" result="hardAlpha" values="0 0 0 0 0 0 0 0 0 0 0 0 0 0 0 0 0 0 127 0"/><feMorphology in="SourceAlpha" radius="1.508" result="effect1_dropShadow_427_164886"/><feOffset dy="1.508"/><feGaussianBlur stdDeviation="1.508"/><feColorMatrix values="0 0 0 0 0.0627451 0 0 0 0 0.0941176 0 0 0 0 0.156863 0 0 0 0.1 0"/><feBlend in2="BackgroundImageFix" result="effect1_dropShadow_427_164886"/><feColorMatrix in="SourceAlpha" result="hardAlpha" values="0 0 0 0 0 0 0 0 0 0 0 0 0 0 0 0 0 0 127 0"/><feMorphology in="SourceAlpha" radius=".754" result="effect2_dropShadow_427_164886"/><feOffset dy="3.017"/><feGaussianBlur stdDeviation="2.263"/><feColorMatrix values="0 0 0 0 0.0627451 0 0 0 0 0.0941176 0 0 0 0 0.156863 0 0 0 0.1 0"/><feBlend in2="effect1_dropShadow_427_164886" result="effect2_dropShadow_427_164886"/><feBlend in="SourceGraphic" in2="effect2_dropShadow_427_164886" result="shape"/></filter></defs></svg>